<?xml version="1.0" standalone="no"?>
<!DOCTYPE svg PUBLIC "-//W3C//DTD SVG 20010904//EN"
 "http://www.w3.org/TR/2001/REC-SVG-20010904/DTD/svg10.dtd">
<svg version="1.0" xmlns="http://www.w3.org/2000/svg"
 width="2016.000000pt" height="2016.000000pt" viewBox="0 0 2016.000000 2016.000000"
 preserveAspectRatio="xMidYMid meet">
<metadata>
Created by potrace 1.16, written by Peter Selinger 2001-2019
</metadata>
<g transform="translate(0.000000,2016.000000) scale(0.100000,-0.100000)"
fill="#FFF" stroke="none">
<path d="M9968 19436 c-63 -48 -239 -156 -255 -156 -5 0 -39 -20 -76 -45 -81
-54 -210 -127 -257 -145 -19 -7 -55 -28 -80 -46 -53 -37 -423 -220 -525 -258
-38 -15 -144 -56 -235 -90 -167 -65 -400 -141 -611 -202 -185 -52 -634 -165
-759 -189 -196 -39 -304 -58 -340 -61 -19 -2 -84 -10 -145 -19 -248 -35 -439
-57 -605 -70 -222 -17 -773 -26 -950 -14 -244 15 -423 30 -590 50 -91 10 -248
28 -350 39 -102 12 -228 29 -280 39 -52 10 -140 26 -195 35 -55 10 -120 22
-145 28 -25 6 -74 16 -110 23 -77 15 -126 26 -280 67 -63 17 -148 39 -190 50
-168 44 -741 229 -890 288 -58 23 -159 62 -225 86 -66 25 -147 57 -180 71
-262 110 -402 175 -583 271 -92 48 -183 94 -202 101 -19 8 -107 49 -196 93
-203 98 -218 99 -259 19 -35 -70 -71 -276 -100 -576 -8 -82 -19 -195 -25 -250
-5 -55 -14 -163 -20 -240 -5 -77 -12 -159 -16 -183 -13 -99 -25 -523 -23 -873
0 -251 -3 -389 -11 -417 -8 -30 -8 -59 -1 -100 6 -31 13 -221 16 -422 4 -201
11 -392 15 -424 5 -33 7 -70 4 -82 -7 -27 13 -582 26 -729 5 -60 14 -186 20
-280 6 -93 15 -210 20 -260 5 -49 16 -173 24 -275 9 -102 20 -212 25 -245 6
-33 17 -134 26 -225 9 -91 20 -199 26 -240 5 -41 16 -140 24 -220 9 -80 18
-152 21 -160 3 -8 10 -51 14 -95 8 -76 16 -134 55 -370 9 -55 22 -136 29 -180
7 -44 20 -111 29 -150 19 -86 29 -138 62 -335 30 -177 54 -290 95 -440 16 -58
42 -170 59 -250 68 -325 96 -441 161 -660 11 -36 24 -87 29 -115 5 -27 26
-104 46 -170 21 -66 57 -190 81 -275 24 -85 53 -180 63 -210 11 -30 26 -82 34
-115 8 -33 54 -161 101 -285 48 -124 105 -279 128 -345 22 -66 46 -131 53
-145 7 -14 31 -81 55 -150 23 -68 52 -145 65 -170 12 -25 30 -68 38 -95 8 -28
34 -89 57 -135 24 -47 52 -112 62 -145 11 -33 43 -109 70 -170 28 -60 59 -134
69 -163 10 -29 54 -123 99 -209 44 -85 80 -160 80 -165 0 -5 13 -29 30 -52 30
-44 60 -117 60 -147 0 -10 15 -39 33 -66 17 -26 49 -84 71 -128 45 -93 45 -92
110 -210 27 -49 58 -108 69 -130 10 -22 29 -53 42 -70 12 -16 36 -59 54 -95
18 -36 52 -91 77 -123 24 -31 44 -60 44 -65 1 -4 20 -32 43 -63 23 -31 74 -98
112 -150 39 -52 95 -130 124 -174 30 -44 74 -106 98 -137 24 -31 65 -88 91
-125 159 -230 609 -766 938 -1117 136 -145 211 -230 282 -319 61 -76 595 -618
692 -702 52 -45 131 -118 175 -161 213 -210 442 -415 640 -576 39 -31 115 -93
170 -138 55 -45 168 -129 250 -188 83 -58 172 -124 199 -146 27 -23 77 -61
112 -86 68 -48 367 -273 423 -318 19 -15 83 -58 141 -97 180 -118 302 -201
363 -248 33 -24 95 -63 139 -87 44 -23 108 -64 142 -90 34 -26 77 -55 96 -65
19 -10 60 -34 90 -55 53 -35 206 -121 360 -203 123 -65 211 -117 277 -163 34
-24 68 -44 76 -44 7 0 83 -36 168 -80 426 -221 530 -269 678 -311 132 -37 149
-40 220 -34 42 4 121 22 176 41 55 18 141 45 190 59 50 15 95 31 100 35 6 4
28 10 50 14 53 8 227 73 236 88 4 7 29 20 56 29 79 28 681 299 786 354 26 14
54 25 63 25 9 0 28 6 42 14 15 7 49 19 77 25 56 14 154 66 162 87 6 17 163
104 188 104 10 0 104 51 209 114 105 62 241 139 301 171 301 160 850 513 1135
730 91 69 222 167 292 216 70 50 158 116 195 148 37 31 114 92 169 134 56 43
147 119 203 170 55 50 160 146 232 212 73 66 189 170 259 230 198 171 327 293
545 515 111 113 234 237 272 275 98 98 443 499 571 665 15 19 63 76 107 126
44 50 107 128 140 173 33 46 87 119 120 164 71 95 84 114 229 322 121 174 226
337 226 352 0 4 20 40 44 79 24 39 58 99 76 133 18 35 39 65 46 68 8 3 14 13
14 24 0 10 7 22 14 26 8 5 29 35 47 68 17 33 42 76 55 95 13 19 24 38 24 43 0
18 109 228 133 257 15 17 27 39 27 49 0 9 22 57 49 106 70 130 89 166 210 412
60 121 135 269 166 328 31 58 65 130 75 158 22 62 58 147 135 322 74 169 144
351 210 550 29 88 79 228 110 310 69 184 71 189 135 405 29 96 77 252 107 345
30 94 68 220 83 280 16 61 37 139 48 175 104 358 152 551 187 750 9 52 21 112
26 133 6 21 17 75 26 120 21 115 39 200 58 282 33 144 53 248 84 445 5 30 13
73 19 95 6 22 18 101 27 175 8 74 22 167 30 205 8 39 16 109 19 158 4 48 10
106 16 130 5 23 17 96 25 162 9 66 20 143 25 170 17 87 41 266 51 380 5 61 16
153 24 205 13 89 28 229 55 535 7 72 18 157 25 190 7 33 18 110 24 170 6 61
20 196 30 300 52 503 79 897 86 1220 2 72 10 256 18 410 9 154 21 408 27 565
6 157 16 335 22 395 26 290 25 1106 -2 1395 -6 58 -10 149 -10 202 0 127 -8
148 -58 148 -21 0 -53 -8 -72 -19 -201 -109 -364 -190 -546 -269 -216 -95
-200 -89 -594 -232 -41 -15 -115 -44 -163 -64 -49 -20 -105 -40 -125 -45 -21
-5 -59 -18 -87 -29 -83 -34 -293 -100 -405 -127 -58 -15 -152 -42 -210 -60
-120 -38 -212 -63 -355 -99 -55 -13 -163 -41 -240 -60 -77 -20 -191 -46 -254
-56 -63 -11 -159 -31 -215 -44 -56 -14 -114 -27 -131 -30 -16 -3 -75 -14 -130
-25 -55 -10 -145 -24 -200 -30 -55 -6 -138 -18 -185 -26 -47 -9 -213 -31 -368
-50 -256 -32 -316 -36 -620 -40 -370 -6 -752 7 -877 31 -44 8 -127 19 -185 24
-169 15 -399 48 -485 68 -44 11 -113 22 -152 26 -75 6 -569 129 -1026 255
-143 40 -400 122 -506 163 -242 93 -453 179 -474 192 -12 8 -76 34 -142 59
-151 57 -303 128 -520 241 -93 49 -220 114 -282 146 -62 32 -129 72 -150 89
-21 17 -47 31 -58 31 -11 -1 -46 -20 -77 -44z m201 -260 c97 -54 289 -149 616
-306 104 -50 198 -92 260 -115 33 -13 119 -46 190 -75 72 -28 186 -71 255 -94
69 -24 186 -66 260 -94 74 -28 155 -56 180 -62 25 -7 50 -15 55 -19 6 -5 48
-18 95 -30 47 -12 114 -31 150 -41 36 -10 90 -24 120 -30 30 -7 82 -18 115
-26 33 -7 94 -20 135 -29 41 -9 102 -22 135 -30 33 -7 94 -20 135 -29 41 -9
140 -30 219 -46 79 -17 180 -35 225 -41 44 -5 115 -16 156 -24 41 -7 138 -23
215 -35 77 -11 172 -26 210 -32 201 -33 567 -44 965 -28 168 6 352 16 410 21
58 6 166 14 240 19 74 4 142 11 150 14 8 3 49 10 90 15 150 20 269 39 278 45
14 8 263 55 352 66 41 5 107 16 145 24 39 8 142 29 230 46 178 35 196 39 345
75 58 14 155 36 215 49 170 37 396 94 456 115 30 10 75 22 100 26 24 4 83 18
131 31 48 13 95 24 105 24 10 0 65 14 122 32 l103 32 18 -22 c26 -32 35 -220
34 -692 -2 -488 -21 -906 -59 -1240 -16 -140 -44 -432 -70 -721 -8 -92 -22
-213 -30 -270 -9 -57 -22 -165 -30 -239 -15 -141 -29 -247 -45 -341 -6 -30
-10 -80 -10 -110 0 -30 -7 -79 -16 -109 -8 -30 -19 -93 -24 -140 -4 -47 -15
-139 -24 -205 -9 -66 -21 -176 -26 -245 -12 -145 -63 -501 -75 -520 -2 -3 -11
-51 -21 -106 -9 -54 -23 -135 -30 -179 -8 -44 -21 -125 -29 -180 -17 -124 -33
-217 -45 -273 -6 -23 -10 -56 -10 -73 0 -18 -4 -48 -9 -68 -5 -20 -15 -73 -21
-118 -6 -45 -17 -106 -24 -135 -25 -99 -91 -435 -106 -543 -4 -27 -17 -99 -29
-159 -11 -61 -21 -124 -21 -141 0 -21 -9 -40 -27 -57 -18 -17 -168 -81 -423
-183 -217 -86 -424 -169 -460 -184 -36 -16 -119 -50 -185 -76 -66 -25 -185
-72 -265 -104 -80 -32 -179 -70 -220 -86 -94 -36 -297 -118 -371 -150 -31 -14
-64 -25 -73 -25 -9 0 -42 -13 -73 -30 -31 -16 -62 -30 -69 -30 -12 0 -45 -14
-190 -81 -22 -11 -46 -19 -52 -19 -6 0 -49 -18 -94 -39 -46 -22 -96 -43 -113
-47 -16 -4 -48 -17 -70 -29 -22 -13 -51 -26 -65 -30 -14 -4 -88 -35 -165 -68
-77 -33 -205 -86 -285 -117 -80 -32 -230 -92 -334 -134 -104 -42 -195 -76
-203 -76 -9 0 -32 -9 -52 -19 -64 -34 -146 -68 -181 -75 -50 -9 -100 -42 -100
-66 0 -26 29 -26 99 0 41 16 56 18 67 9 17 -14 18 -62 2 -92 -6 -12 -12 -49
-14 -82 -6 -138 -35 -330 -53 -355 -11 -15 -43 -34 -82 -47 -35 -13 -90 -34
-121 -48 -45 -20 -62 -24 -77 -15 -11 5 -40 10 -65 10 -40 0 -48 -4 -79 -40
-19 -22 -39 -40 -44 -40 -6 0 -16 -7 -23 -15 -7 -8 -22 -15 -35 -15 -12 0 -36
-5 -54 -11 -32 -11 -32 -11 -11 -26 24 -17 65 -13 115 9 17 7 66 14 110 15 44
1 136 5 203 8 119 6 125 6 148 -16 33 -31 31 -66 -8 -102 -25 -22 -81 -45
-218 -91 -102 -35 -199 -70 -217 -79 -18 -9 -41 -17 -53 -17 -11 0 -47 -11
-79 -24 -44 -18 -71 -22 -105 -19 -41 5 -52 2 -91 -26 -24 -17 -49 -31 -57
-31 -7 -1 -53 -22 -103 -49 -65 -35 -91 -54 -93 -70 -5 -29 11 -27 103 10 111
44 135 46 164 15 27 -29 63 -33 101 -11 14 8 39 14 55 15 17 0 50 6 75 14 29
9 128 17 267 21 220 7 221 7 243 -15 20 -20 22 -29 16 -83 -3 -33 -9 -153 -12
-266 -4 -113 -11 -215 -17 -225 -5 -11 -11 -72 -13 -135 -2 -64 -9 -208 -15
-321 -7 -113 -13 -252 -15 -310 -1 -58 -8 -118 -14 -135 -6 -16 -14 -104 -17
-195 -2 -91 -9 -178 -14 -195 -17 -57 -37 -469 -29 -592 3 -40 -32 -113 -53
-113 -7 0 -82 22 -167 49 -201 65 -356 88 -580 87 -91 -1 -199 -7 -240 -14
-123 -21 -264 -54 -275 -63 -5 -5 -19 -9 -32 -9 -59 0 -396 -166 -467 -231
-28 -25 -69 -57 -91 -71 -22 -14 -106 -92 -187 -172 -145 -145 -148 -147 -171
-131 -13 8 -39 36 -57 63 -74 106 -335 342 -433 392 -16 8 -39 23 -51 35 -12
11 -46 31 -76 45 -30 13 -71 35 -90 47 -20 13 -60 30 -90 39 -30 9 -71 24 -90
34 -19 10 -60 23 -91 29 -31 7 -78 20 -105 30 -47 18 -175 29 -404 35 -188 5
-392 -28 -565 -91 -38 -14 -94 -34 -123 -45 -29 -10 -84 -38 -122 -63 -38 -24
-100 -60 -137 -79 -37 -18 -77 -43 -87 -55 -11 -12 -25 -21 -33 -21 -7 0 -13
-4 -13 -9 0 -5 -24 -28 -52 -50 -71 -55 -121 -103 -192 -181 -33 -36 -68 -71
-78 -78 -29 -21 -62 -7 -102 45 -70 92 -81 106 -126 158 -86 100 -309 269
-458 347 -53 28 -101 54 -107 58 -36 28 -349 130 -399 130 -13 0 -37 5 -53 11
-60 23 -287 33 -443 20 -163 -14 -369 -55 -429 -85 -14 -7 -62 -26 -106 -41
-108 -37 -266 -121 -340 -180 -22 -17 -49 -37 -60 -42 -34 -18 -178 -142 -210
-180 -84 -101 -97 -113 -126 -113 -16 0 -37 4 -47 9 -9 4 -34 16 -55 26 -22
11 -66 51 -102 94 -35 42 -114 135 -176 206 -61 72 -130 156 -152 189 -23 32
-59 82 -79 110 -20 28 -67 101 -103 161 -37 61 -77 121 -90 135 -13 14 -39 52
-58 85 -46 80 -145 237 -238 376 -42 63 -93 146 -112 186 -20 39 -61 112 -92
163 -30 50 -55 93 -55 96 0 3 -20 35 -43 72 -24 37 -70 119 -103 182 -32 63
-73 135 -90 160 -18 25 -55 97 -83 160 -59 131 -165 346 -195 393 -37 60 -146
275 -166 331 -12 30 -31 74 -44 98 -12 24 -26 55 -30 70 -3 16 -28 74 -55 130
-27 57 -52 114 -56 128 -4 14 -11 30 -15 35 -7 9 -78 187 -140 350 -25 64 -85
228 -120 325 -111 310 -145 402 -165 451 -26 63 -55 170 -55 202 0 12 -9 45
-20 74 -10 28 -29 87 -41 130 -12 43 -28 101 -36 128 -8 28 -21 84 -28 125
-23 119 -78 339 -130 520 -8 30 -19 78 -24 105 -6 28 -19 77 -31 110 -11 33
-23 87 -26 120 -3 33 -12 80 -19 105 -8 25 -18 77 -24 115 -6 39 -17 93 -26
120 -8 28 -20 94 -25 148 -6 54 -16 110 -21 125 -6 15 -14 56 -19 92 -4 36
-16 108 -25 160 -9 52 -20 127 -25 165 -5 39 -14 94 -20 124 -5 29 -10 73 -10
96 0 23 -7 61 -15 86 -14 44 -26 145 -45 374 -6 66 -13 131 -16 145 -4 14 -10
135 -14 270 -5 135 -13 310 -19 390 -15 196 -30 714 -42 1360 -5 294 -11 661
-14 815 -3 155 0 365 6 470 6 105 15 316 20 470 14 427 26 657 37 685 5 14 20
34 32 45 l22 20 76 -28 c75 -28 392 -127 482 -152 25 -7 56 -18 69 -24 30 -17
100 -38 201 -61 47 -10 110 -28 142 -39 31 -11 94 -27 140 -36 45 -9 103 -22
128 -30 25 -7 68 -16 95 -20 28 -4 82 -15 120 -25 39 -10 93 -20 120 -24 28
-3 104 -15 170 -26 205 -34 314 -49 475 -65 85 -9 198 -22 250 -30 52 -7 163
-17 245 -20 83 -4 177 -9 210 -11 73 -4 624 -18 715 -18 75 0 357 11 510 20
58 3 161 14 230 24 69 10 188 26 265 35 168 19 222 29 340 61 50 13 212 54
360 89 149 36 277 67 285 69 31 8 335 97 443 130 62 19 142 42 179 50 93 23
152 45 313 116 77 34 185 79 240 100 150 56 191 74 295 124 93 45 118 58 191
104 20 12 43 22 51 22 8 0 33 13 54 28 21 15 53 34 71 41 18 7 38 19 44 27 6
8 18 14 26 14 8 0 40 15 71 34 140 82 202 120 267 161 39 24 78 44 89 45 10 0
71 -29 135 -64z m-9192 -140 c339 -170 582 -285 676 -321 108 -41 152 -63 176
-89 l24 -26 -18 -312 c-51 -865 -2 -3309 85 -4233 17 -176 35 -387 40 -470 6
-82 23 -224 40 -315 16 -91 34 -203 40 -250 6 -47 17 -119 25 -160 8 -41 26
-140 40 -220 15 -80 38 -199 51 -265 14 -66 32 -156 40 -200 9 -44 26 -125 39
-181 13 -55 27 -120 30 -145 4 -24 26 -120 50 -214 24 -93 51 -204 60 -245 10
-41 27 -109 40 -150 12 -41 30 -109 39 -150 42 -193 246 -855 341 -1110 25
-69 60 -168 77 -220 17 -52 50 -133 73 -180 41 -82 78 -164 200 -445 31 -71
85 -188 120 -260 35 -71 75 -155 89 -185 14 -30 40 -82 58 -115 19 -33 46 -89
62 -125 55 -125 125 -266 197 -395 39 -71 85 -155 102 -185 16 -30 51 -91 76
-135 26 -44 55 -96 66 -115 46 -86 294 -482 406 -650 68 -102 135 -203 150
-225 65 -103 227 -328 289 -405 38 -47 93 -119 121 -160 29 -41 73 -100 98
-130 26 -30 69 -84 96 -120 27 -36 101 -122 165 -192 63 -70 156 -173 205
-229 50 -57 118 -130 153 -164 143 -136 193 -187 323 -320 125 -129 215 -213
513 -479 61 -54 149 -135 196 -180 47 -45 123 -113 169 -151 46 -39 118 -99
160 -135 42 -36 90 -77 107 -90 17 -14 94 -79 170 -145 76 -67 155 -132 174
-145 20 -14 90 -68 155 -121 203 -162 295 -232 485 -373 74 -55 160 -118 190
-141 105 -79 300 -208 440 -292 58 -35 128 -79 156 -99 28 -20 82 -53 120 -73
38 -21 148 -85 244 -143 199 -119 406 -228 435 -228 11 0 33 -7 49 -15 36 -19
110 -19 144 -1 44 24 201 92 302 131 52 20 120 47 151 61 31 13 60 24 63 24 4
0 35 14 69 31 34 17 130 60 212 94 272 114 387 169 670 319 17 8 66 33 111 55
44 21 130 70 191 107 62 38 169 101 239 139 152 84 327 192 484 298 63 43 196
131 295 197 99 66 207 140 240 166 33 25 127 93 209 150 149 105 221 159 322
244 29 25 115 97 190 160 347 293 580 507 900 831 352 357 578 602 594 644 3
8 39 53 80 102 190 221 367 454 445 583 31 52 65 104 74 115 24 27 235 376
306 505 32 58 76 134 98 170 22 36 50 85 61 110 12 25 61 119 110 210 180 333
206 384 257 494 28 61 78 165 109 231 208 433 318 680 384 860 20 55 43 116
51 135 24 58 115 310 145 400 16 47 48 123 71 170 44 90 90 218 169 470 47
150 63 208 110 390 11 47 28 105 36 130 9 25 25 86 36 135 11 50 30 128 43
175 27 97 73 283 87 350 5 25 18 83 29 130 10 47 19 102 19 122 0 20 5 49 11
65 16 43 55 252 78 423 12 85 24 169 27 185 3 17 10 59 14 95 19 146 52 339
70 410 11 41 27 134 36 205 21 171 28 211 54 330 11 55 27 164 34 242 8 78 16
145 19 150 3 4 10 62 17 128 6 66 17 143 25 170 12 43 32 171 48 310 3 22 12
87 20 145 8 58 20 150 27 205 6 55 16 122 21 148 5 27 14 128 20 225 6 102 23
253 40 357 17 99 34 214 38 255 5 41 16 156 25 255 9 99 24 208 32 242 8 34
14 90 14 125 0 59 17 274 40 503 28 287 39 589 37 1080 -1 497 -1 511 19 555
25 54 76 100 111 100 14 0 62 15 107 34 45 19 119 49 166 67 47 18 108 45 137
61 65 37 197 94 288 125 39 13 114 44 167 70 77 36 100 44 111 34 8 -6 22 -51
32 -99 34 -170 26 -1114 -16 -1872 -6 -102 -14 -259 -19 -350 -5 -91 -14 -304
-19 -473 -6 -169 -15 -363 -21 -430 -5 -67 -16 -205 -25 -307 -14 -168 -24
-291 -55 -630 -6 -63 -15 -146 -20 -185 -6 -38 -19 -178 -30 -310 -11 -132
-24 -271 -30 -310 -5 -38 -15 -126 -21 -195 -24 -265 -32 -329 -84 -655 -25
-155 -36 -233 -44 -325 -4 -47 -16 -123 -25 -170 -10 -47 -24 -114 -31 -150
-7 -36 -18 -105 -25 -155 -6 -49 -17 -117 -25 -150 -8 -33 -17 -82 -20 -110
-3 -27 -17 -90 -30 -140 -12 -49 -26 -121 -30 -160 -4 -38 -11 -80 -16 -92 -5
-13 -18 -78 -29 -147 -11 -68 -25 -136 -30 -152 -5 -16 -16 -68 -24 -115 -8
-47 -31 -148 -51 -225 -21 -76 -41 -157 -45 -179 -5 -22 -14 -53 -20 -70 -6
-16 -25 -86 -41 -155 -58 -249 -79 -326 -129 -485 -43 -135 -121 -405 -131
-450 -13 -63 -227 -701 -269 -800 -20 -49 -43 -108 -50 -130 -7 -22 -38 -105
-70 -185 -32 -80 -84 -210 -115 -290 -32 -80 -73 -175 -91 -211 -18 -36 -49
-108 -70 -160 -73 -188 -428 -902 -503 -1013 -43 -64 -141 -234 -158 -275 -8
-20 -35 -66 -59 -103 -24 -38 -53 -86 -64 -108 -11 -21 -45 -76 -75 -120 -30
-44 -55 -85 -55 -91 0 -15 -68 -120 -101 -154 -30 -32 -62 -77 -213 -300 -52
-77 -163 -228 -247 -335 -84 -107 -189 -242 -232 -300 -86 -114 -245 -305
-342 -411 -33 -36 -112 -124 -175 -194 -181 -203 -223 -246 -461 -480 -221
-217 -459 -439 -649 -605 -54 -47 -137 -121 -186 -165 -49 -44 -116 -101 -149
-125 -33 -24 -91 -73 -128 -108 -37 -34 -87 -76 -110 -92 -23 -17 -76 -57
-117 -90 -91 -73 -231 -174 -325 -237 -38 -25 -90 -64 -115 -85 -25 -22 -58
-47 -75 -55 -16 -8 -55 -35 -86 -58 -30 -24 -76 -56 -101 -72 -25 -15 -74 -47
-108 -71 -38 -26 -71 -41 -85 -40 -15 2 -50 -16 -96 -49 -185 -132 -234 -165
-270 -184 -22 -10 -73 -43 -115 -72 -41 -28 -83 -56 -92 -62 -9 -5 -61 -40
-117 -76 -92 -61 -286 -176 -345 -205 -324 -160 -639 -323 -672 -346 -15 -10
-46 -25 -70 -34 -23 -8 -53 -21 -65 -29 -55 -36 -406 -162 -516 -185 -37 -7
-70 -22 -90 -39 -47 -42 -77 -55 -276 -120 -214 -71 -376 -110 -486 -118 -99
-6 -226 21 -330 72 -38 18 -158 75 -265 125 -107 50 -224 108 -260 129 -36 21
-105 62 -155 91 -49 29 -112 66 -140 83 -27 16 -93 54 -145 84 -94 54 -198
119 -380 238 -52 35 -153 100 -225 145 -71 46 -146 96 -165 113 -18 16 -78 59
-133 94 -54 35 -198 135 -320 222 -122 87 -271 190 -332 229 -60 39 -137 93
-169 119 -33 26 -84 68 -115 93 -31 25 -119 97 -196 160 -77 62 -176 144 -220
181 -44 37 -154 129 -245 205 -91 75 -179 150 -196 168 -32 31 -90 82 -324
282 -135 116 -864 841 -944 939 -26 33 -127 146 -224 250 -96 105 -214 232
-261 284 -47 52 -106 114 -131 139 -25 24 -76 81 -115 128 -38 46 -102 121
-141 166 -39 46 -112 137 -163 203 -50 66 -123 161 -162 210 -38 50 -86 112
-107 139 -20 27 -65 82 -100 124 -111 132 -285 395 -389 586 -30 55 -69 125
-87 155 -109 184 -161 283 -357 686 -172 354 -182 376 -240 510 -28 66 -74
172 -101 235 -100 232 -250 632 -328 880 -29 91 -61 188 -72 215 -11 28 -27
70 -35 95 -9 25 -23 63 -33 85 -17 39 -59 181 -135 455 -20 74 -41 146 -46
160 -4 14 -29 106 -55 205 -25 99 -47 182 -49 185 -2 3 -19 66 -38 140 -20 74
-51 194 -70 265 -18 72 -51 202 -72 290 -20 88 -51 212 -67 275 -16 63 -36
162 -44 220 -8 58 -19 125 -23 150 -5 25 -21 108 -35 185 -14 77 -31 163 -36
190 -6 28 -15 68 -19 90 -19 89 -40 217 -56 335 -16 121 -22 161 -44 280 -6
30 -13 98 -16 150 -4 52 -10 115 -15 140 -12 63 -38 287 -45 395 -4 50 -13
122 -20 160 -7 39 -16 106 -20 150 -3 44 -15 163 -26 265 -10 102 -26 291 -34
420 -9 129 -20 294 -25 365 -5 72 -14 342 -19 600 -6 259 -16 589 -22 735 -6
146 -9 382 -6 525 9 449 26 945 37 1080 15 169 38 402 50 490 5 39 12 135 15
215 3 80 9 166 14 193 9 54 43 97 77 97 13 0 162 -69 331 -154z m16607 -7395
c6 -9 -8 -96 -30 -181 -27 -107 -42 -176 -49 -220 -16 -111 -74 -329 -101
-382 -18 -35 -35 -44 -142 -72 -78 -21 -309 -100 -542 -186 -114 -42 -265 -94
-500 -174 -816 -275 -1450 -494 -1637 -565 -72 -27 -211 -75 -308 -107 -176
-58 -176 -58 -196 -38 -20 20 -31 68 -48 200 -10 76 -47 200 -62 210 -18 10
-9 53 14 68 12 8 83 39 157 69 74 31 180 74 235 97 55 23 204 84 330 135 127
51 253 103 280 115 28 12 302 123 610 247 566 229 609 245 815 326 63 24 210
83 325 130 116 47 262 106 325 132 125 50 119 48 236 99 45 20 85 36 90 36 5
1 41 16 79 35 70 34 109 43 119 26z m-235 -925 c9 -11 7 -26 -9 -67 -11 -30
-20 -62 -20 -72 0 -34 -61 -83 -119 -96 -49 -10 -319 -99 -686 -225 -201 -69
-407 -145 -505 -186 -41 -17 -142 -56 -225 -85 -82 -29 -163 -59 -180 -66 -36
-15 -219 -79 -325 -113 -41 -14 -120 -41 -175 -61 -55 -20 -154 -56 -220 -80
-66 -24 -210 -76 -320 -116 -345 -125 -386 -139 -404 -139 -32 0 -61 44 -72
109 -11 60 -11 64 13 87 15 16 76 42 168 73 80 27 213 74 295 104 83 30 204
74 270 96 66 23 129 46 140 51 19 9 215 76 855 291 162 55 309 106 327 114 17
8 36 15 43 15 13 0 241 73 425 137 72 25 164 55 205 68 41 13 104 35 140 49
117 48 164 64 200 70 19 3 58 17 85 31 58 28 78 31 94 11z m-119 -351 c11 -13
8 -21 -16 -46 -16 -16 -40 -32 -54 -36 -135 -31 -890 -276 -1950 -632 -344
-116 -626 -211 -627 -211 -2 0 -3 6 -3 14 0 8 21 22 48 31 48 17 107 40 312
119 63 24 203 75 310 111 107 37 258 90 335 116 77 27 259 90 405 140 146 50
337 115 425 146 88 30 234 80 325 110 91 30 210 70 265 89 83 29 178 58 206
63 4 1 12 -6 19 -14z m-61 -188 c8 -10 2 -34 -25 -98 -20 -46 -56 -136 -81
-199 -25 -63 -54 -125 -66 -138 -38 -41 -62 -50 -707 -258 -129 -41 -298 -98
-375 -125 -77 -27 -185 -64 -240 -83 -121 -41 -243 -84 -270 -96 -11 -5 -74
-25 -140 -45 -66 -20 -177 -54 -247 -76 -70 -22 -153 -44 -185 -50 -32 -6 -76
-19 -99 -30 -35 -17 -72 -20 -275 -25 l-234 -7 -22 24 c-22 25 -47 127 -37
154 3 8 -4 42 -15 76 -20 57 -21 63 -6 86 13 20 51 43 71 43 3 0 12 -16 20
-35 8 -21 21 -35 32 -35 9 0 71 19 137 42 66 22 146 44 178 48 32 5 66 15 76
24 28 26 655 241 1121 385 146 45 351 111 455 146 105 35 260 84 346 109 85
25 229 71 319 101 136 47 191 63 251 74 4 1 12 -5 18 -12z m-3230 -271 c18
-19 22 -33 19 -77 -4 -70 -18 -72 -86 -13 -59 52 -65 79 -22 101 37 19 64 16
89 -11z m3009 -323 c2 -12 -4 -32 -12 -45 -8 -13 -29 -66 -46 -118 -17 -52
-64 -162 -104 -245 -40 -82 -76 -163 -80 -180 -7 -28 -51 -127 -174 -389 -72
-153 -384 -771 -436 -865 -26 -45 -54 -101 -63 -123 -9 -22 -32 -70 -51 -107
-19 -36 -65 -124 -102 -196 -63 -122 -171 -300 -238 -390 -16 -22 -42 -62 -56
-90 -29 -56 -119 -187 -175 -255 -21 -25 -66 -88 -102 -140 -35 -52 -96 -129
-135 -170 -38 -41 -87 -99 -108 -128 -21 -29 -55 -65 -75 -80 -49 -37 -67 -58
-98 -117 -31 -59 -179 -215 -204 -215 -23 0 -39 30 -39 73 0 19 -7 74 -16 123
-15 89 -26 176 -44 374 -6 58 -15 124 -20 148 -6 24 -15 85 -20 135 -19 171
-38 331 -59 482 -12 83 -25 186 -30 230 -6 44 -14 109 -20 145 -5 36 -17 126
-26 200 -8 74 -22 177 -30 228 -65 410 -75 464 -95 517 -23 64 -30 94 -40 180
-5 39 -16 114 -26 167 -16 91 -16 98 0 122 13 21 25 26 55 26 45 0 64 -18 56
-53 -7 -26 15 -57 40 -57 7 0 54 16 104 35 49 19 99 35 109 35 10 0 46 9 80
21 58 19 64 20 87 5 39 -26 70 -20 99 18 14 19 40 39 58 44 117 35 574 178
628 197 36 13 182 62 325 109 143 47 305 101 360 120 55 19 141 46 190 61 118
36 394 144 420 165 14 11 77 29 95 27 8 -1 16 -12 18 -24z m-2958 -23 c41 -22
34 -94 -14 -132 -44 -36 -146 -7 -146 41 0 22 35 55 86 81 46 23 49 23 74 10z
m33 -383 c31 -29 57 -60 57 -69 0 -22 -84 -134 -111 -148 -13 -7 -48 -10 -85
-8 -49 3 -69 9 -89 28 -14 13 -25 27 -25 32 0 15 81 129 123 175 22 24 47 43
56 43 9 0 42 -24 74 -53z m-391 -74 c25 -22 24 -87 -3 -129 l-21 -34 -111 0
c-62 0 -156 -3 -209 -7 -86 -5 -98 -4 -104 11 -4 9 -4 19 -1 22 5 5 414 152
426 153 3 1 13 -6 23 -16z m478 -248 c17 -18 25 -40 28 -80 4 -50 3 -55 -15
-55 -11 0 -46 24 -79 54 l-59 54 24 26 c31 33 70 34 101 1z m-285 -16 c19 -17
35 -36 35 -43 0 -18 -110 -146 -126 -146 -11 0 -14 18 -14 85 0 78 2 88 25
110 31 32 37 31 80 -6z m193 -165 c121 -103 152 -133 152 -147 0 -7 -40 -52
-89 -100 -95 -93 -114 -101 -163 -69 -44 29 -178 153 -178 164 0 6 19 32 43
58 23 25 64 72 90 103 27 31 53 57 58 57 5 0 45 -30 87 -66z m-218 -329 c30
-30 59 -55 64 -55 12 0 56 -41 56 -52 0 -11 -200 -238 -210 -238 -24 0 -28 33
-21 201 4 97 11 181 15 187 14 24 43 11 96 -43z m397 13 c6 -7 14 -47 18 -88
12 -110 11 -133 -1 -137 -17 -6 -134 106 -134 127 0 21 76 110 95 110 7 0 17
-6 22 -12z m-118 -236 c31 -26 75 -62 99 -81 64 -49 59 -65 -55 -182 -53 -54
-103 -99 -112 -99 -9 0 -27 10 -41 21 -14 11 -58 42 -98 70 -40 28 -76 57 -79
65 -8 23 187 254 215 254 8 0 41 -22 71 -48z m-251 -357 c56 -47 102 -91 102
-98 0 -18 -239 -277 -255 -277 -8 0 -16 3 -18 8 -3 4 -1 99 5 212 7 165 12
208 25 222 9 10 21 18 27 18 6 0 57 -38 114 -85z m449 73 c5 -7 16 -47 23 -88
7 -41 19 -106 26 -144 13 -68 12 -86 -7 -86 -12 0 -157 110 -188 144 l-24 25
73 81 c40 44 76 80 80 80 4 0 12 -6 17 -12z m-111 -352 c71 -57 138 -113 148
-125 l20 -22 -134 -134 c-74 -74 -139 -135 -144 -135 -20 0 -292 206 -301 228
-4 10 10 33 42 66 133 141 219 226 229 226 6 0 69 -47 140 -104z m-416 -320
c183 -131 225 -164 228 -177 1 -8 -74 -88 -168 -178 -153 -146 -173 -162 -186
-149 -14 14 -14 41 0 251 9 129 13 242 10 251 -7 19 24 59 41 52 6 -2 40 -25
75 -50z m635 -41 c20 -94 36 -288 26 -298 -6 -6 -29 4 -58 24 -82 55 -193 140
-193 147 0 15 186 192 199 190 9 -2 19 -27 26 -63z m-222 -257 c134 -97 217
-169 217 -189 0 -19 -322 -339 -340 -339 -23 0 -298 193 -316 221 -7 13 333
359 353 359 7 0 46 -24 86 -52z m308 -453 c55 -394 56 -415 31 -415 -10 0
-202 134 -289 201 -29 22 -53 47 -53 55 0 22 261 285 279 282 12 -2 19 -32 32
-123z m-723 -12 c136 -97 202 -152 202 -166 -1 -7 -14 -28 -30 -47 -74 -85 1
-137 94 -65 26 19 53 35 61 35 12 0 73 -41 383 -258 74 -52 90 -74 97 -139 3
-32 11 -79 17 -105 11 -44 10 -50 -13 -81 -48 -69 -160 -178 -177 -175 -9 2
-28 23 -41 48 -13 25 -66 113 -117 195 -77 124 -110 167 -191 246 -138 135
-231 212 -322 265 -121 70 -121 69 -111 192 7 88 19 132 37 132 2 0 52 -34
111 -77z m-6691 37 c296 -47 560 -163 778 -340 180 -147 270 -247 379 -425 30
-49 61 -98 69 -109 20 -29 50 -12 81 44 15 27 47 73 71 102 25 28 45 55 45 59
0 6 95 95 260 244 31 27 171 115 247 154 190 97 339 147 532 176 111 18 357
20 468 4 178 -24 386 -93 568 -186 81 -42 261 -169 269 -189 3 -8 11 -14 18
-14 21 0 158 -144 250 -262 77 -99 108 -147 122 -190 7 -22 52 -34 71 -18 8 6
33 46 56 87 47 86 227 288 317 356 30 23 71 54 91 69 57 43 219 133 306 171
155 67 329 113 486 127 298 26 498 -1 794 -110 97 -35 183 -81 310 -165 115
-75 285 -217 285 -237 0 -6 12 -22 28 -38 66 -66 232 -298 232 -324 0 -5 6
-17 14 -25 22 -26 58 -133 52 -157 -6 -21 -31 -45 -134 -129 -71 -57 -91 -47
-137 70 -16 39 -35 80 -43 93 -15 24 -46 29 -58 10 -4 -6 -9 -77 -11 -157 -4
-201 -8 -221 -46 -267 -18 -22 -41 -57 -51 -79 -10 -22 -26 -48 -35 -59 -28
-33 -115 -92 -152 -105 -20 -6 -45 -21 -55 -33 -45 -49 -105 -80 -167 -86 -71
-6 -1237 15 -1642 30 -412 15 -386 15 -398 -4 -9 -13 -7 -21 6 -36 23 -25 22
-55 -3 -77 -18 -16 -32 -17 -131 -12 -117 7 -139 15 -139 52 0 40 31 66 85 72
46 5 64 16 65 36 0 4 -27 7 -60 7 -48 0 -64 4 -81 21 -20 20 -21 27 -13 138 4
64 7 190 5 281 -2 148 -5 170 -27 225 -56 137 -106 215 -138 215 l-23 0 -6
-277 c-6 -268 -5 -278 15 -314 18 -33 20 -49 16 -150 -4 -103 -7 -114 -28
-131 -20 -16 -34 -18 -80 -14 -30 4 -401 11 -825 16 -423 5 -867 14 -985 20
-496 23 -491 23 -510 -35 -17 -51 -35 -57 -145 -47 -142 14 -135 -1 -135 265
l0 219 -49 147 c-48 143 -109 294 -139 339 -8 13 -24 22 -40 22 l-25 0 6 -217
c3 -139 1 -237 -5 -271 l-11 -54 36 -33 37 -34 0 -103 c0 -86 -3 -109 -20
-136 l-20 -33 -243 1 c-552 4 -1095 18 -1119 31 -85 45 -318 279 -318 319 0
12 -9 39 -21 62 -20 39 -21 59 -25 462 -3 232 -7 444 -10 473 -8 73 -26 76
-117 18 -119 -76 -201 -135 -209 -149 -4 -7 -7 -105 -5 -217 3 -254 -9 -285
-82 -224 -42 36 -65 111 -58 192 6 59 5 63 -15 63 -11 0 -38 -16 -59 -35 -22
-19 -44 -35 -49 -35 -6 0 -22 11 -36 25 -14 14 -29 25 -34 25 -14 0 -100 106
-100 122 0 40 212 270 321 350 19 13 52 37 73 54 168 125 447 237 669 270 61
9 114 18 116 20 14 13 305 2 418 -16z m-931 -611 c12 -21 16 -650 3 -665 -21
-25 -44 -15 -101 44 -72 73 -77 94 -78 329 l0 181 53 44 c55 47 98 77 109 77
4 1 10 -4 14 -10z m2154 -1359 c23 -12 44 -73 36 -105 -9 -35 -37 -47 -75 -34
-54 19 -69 84 -29 126 24 25 40 28 68 13z m-796 -30 c477 -11 436 5 436 -176
0 -99 -3 -124 -16 -135 -12 -10 -15 -24 -10 -55 3 -28 1 -47 -9 -60 -8 -10
-15 -25 -15 -33 0 -27 -32 -51 -67 -51 -29 0 -33 -3 -33 -25 0 -15 6 -25 15
-25 7 0 18 -8 23 -17 9 -15 17 -16 76 -5 60 11 69 11 91 -5 37 -27 28 -47 -23
-51 -39 -3 -42 -5 -42 -31 0 -35 23 -47 114 -64 73 -13 94 -31 54 -46 -13 -5
-40 -25 -60 -45 -20 -20 -44 -36 -54 -36 -10 0 -49 15 -88 34 -39 19 -87 41
-106 49 -49 19 -134 75 -212 138 -36 30 -101 82 -144 116 -44 33 -115 95 -159
136 -94 88 -93 95 18 115 40 7 96 17 124 22 29 5 84 6 123 3 65 -6 70 -5 70
14 0 17 -9 21 -52 27 -84 10 -145 7 -268 -11 l-116 -17 -88 45 c-107 53 -234
164 -223 193 7 17 17 18 130 12 67 -4 297 -11 511 -16z m1786 -34 c289 -8 741
-20 1005 -27 462 -11 481 -12 503 -32 21 -20 22 -27 22 -182 0 -219 10 -208
-173 -200 -160 7 -200 0 -205 -35 -4 -23 -4 -23 77 -16 62 5 89 3 117 -9 20
-8 51 -15 70 -15 39 0 84 -16 84 -29 0 -5 -25 -24 -56 -42 -46 -26 -71 -33
-138 -38 -76 -6 -81 -7 -84 -30 l-4 -24 169 5 c139 5 178 3 228 -10 38 -11 60
-22 60 -31 0 -12 -19 -15 -95 -16 -52 0 -101 -4 -107 -8 -14 -9 -18 -43 -5
-50 4 -3 66 -1 137 4 l130 8 62 -30 c74 -35 178 -40 237 -12 29 13 40 14 61 5
14 -7 44 -12 67 -12 l40 0 -6 33 -6 34 172 6 c95 4 219 7 276 7 93 0 102 2
102 18 0 17 -12 20 -109 26 -61 3 -186 3 -280 0 -160 -7 -171 -6 -178 11 -4
13 -1 22 11 29 59 36 59 44 4 55 -40 8 -48 34 -16 55 17 11 64 15 189 18 92 2
162 6 156 9 -5 4 -7 14 -4 22 6 15 8 14 -193 35 -77 8 -90 15 -90 47 0 37 28
45 170 50 118 4 135 3 171 -16 78 -39 270 -61 382 -43 27 5 37 11 37 25 0 17
-9 19 -112 19 -122 0 -163 8 -247 48 -53 25 -57 25 -213 18 -201 -8 -198 -10
-198 127 0 141 -28 132 367 123 181 -4 539 -13 796 -21 456 -13 497 -17 497
-45 0 -9 -108 -88 -147 -109 -18 -9 -34 -8 -79 5 -48 14 -76 15 -208 6 -125
-9 -168 -8 -246 5 -97 15 -559 34 -573 23 -11 -9 2 -37 21 -46 9 -4 107 -8
217 -9 120 -2 252 -9 330 -20 132 -17 213 -16 325 6 65 13 114 0 108 -28 -3
-18 -89 -86 -175 -137 -76 -46 -153 -107 -153 -122 0 -22 -16 -24 -48 -8 -21
10 -53 14 -104 12 -70 -3 -73 -4 -73 -28 0 -21 6 -26 35 -30 22 -3 35 -10 35
-20 0 -8 -54 -52 -120 -98 -66 -46 -129 -92 -140 -102 -30 -27 -59 -32 -121
-21 -33 6 -105 8 -176 4 -113 -6 -119 -7 -116 -27 3 -20 9 -21 123 -22 161 0
162 -9 18 -105 -164 -109 -231 -149 -252 -149 -10 0 -32 7 -49 16 -44 22 -106
15 -110 -12 -2 -14 5 -24 23 -32 14 -6 25 -18 25 -27 0 -30 -204 -153 -235
-141 -8 3 -15 15 -15 26 0 17 -6 20 -42 20 -53 0 -232 -25 -247 -34 -6 -4 -11
-16 -11 -26 0 -16 11 -19 83 -25 73 -6 90 -4 135 15 51 22 87 21 80 -2 -11
-33 -645 -364 -887 -463 -215 -88 -506 -200 -600 -230 -52 -17 -56 -17 -88 0
-48 26 -40 48 22 58 28 4 93 21 146 37 52 17 107 30 122 30 22 0 27 5 27 25 0
22 -4 25 -37 25 -44 -1 -121 -10 -327 -40 l-148 -22 -103 62 c-56 35 -116 73
-131 86 -26 20 -27 24 -14 38 25 26 156 22 315 -9 146 -29 292 -35 478 -19 67
5 77 9 77 25 0 18 -9 19 -150 19 -97 0 -173 5 -213 15 -301 70 -500 73 -542 9
-8 -13 -22 -24 -30 -24 -9 0 -61 31 -118 68 -56 38 -119 79 -139 91 -71 43
-48 65 91 87 107 17 228 15 311 -5 139 -33 183 -42 266 -53 113 -14 217 -3
222 25 3 16 -3 18 -50 16 -63 -3 -98 3 -238 41 -256 70 -354 76 -533 34 -62
-15 -129 -35 -150 -46 -33 -16 -42 -17 -57 -6 -10 7 -77 53 -150 102 -72 49
-134 95 -137 102 -3 8 -11 14 -18 14 -37 0 -480 334 -480 363 0 18 66 36 190
53 86 11 136 12 230 4 75 -6 135 -6 160 0 22 5 42 5 45 1 3 -5 20 -7 38 -6 17
1 32 -2 32 -7 0 -4 27 -8 60 -8 53 0 60 2 60 20 0 20 -16 24 -92 23 -10 0 -18
4 -18 8 0 4 -16 5 -37 2 -22 -4 -34 -2 -30 4 4 6 -31 14 -85 22 -99 13 -108
16 -108 35 0 13 72 46 98 46 7 0 12 9 12 20 0 21 -33 29 -45 10 -4 -6 -40 -9
-87 -7 -60 2 -82 7 -89 19 -5 9 -20 19 -35 22 -17 5 -24 12 -22 24 5 26 72 33
143 16 79 -20 264 -22 276 -3 18 29 5 37 -86 56 -31 6 -40 13 -40 28 0 17 9
21 60 28 147 20 170 45 82 90 -30 15 -59 27 -65 27 -7 0 -21 9 -32 20 -18 18
-20 33 -20 182 0 152 1 163 22 185 26 28 -26 27 648 9z m-832 -142 c24 -17 30
-61 12 -95 -10 -17 -22 -19 -117 -19 -119 0 -143 10 -143 62 0 53 28 68 133
68 68 0 99 -4 115 -16z m2894 -81 c24 -21 23 -65 -1 -87 -17 -16 -33 -17 -132
-11 -89 6 -116 12 -130 26 -24 24 -24 44 1 69 18 18 33 20 132 20 90 0 115 -3
130 -17z"/>
<path d="M9786 17294 c-88 -7 -165 -15 -172 -18 -8 -3 -13 -35 -15 -96 -4 -88
-5 -93 -35 -120 -20 -17 -49 -31 -75 -35 -119 -18 -437 -132 -535 -191 -32
-20 -77 -45 -99 -56 -22 -11 -77 -45 -122 -74 -44 -30 -89 -54 -99 -54 -9 0
-46 27 -81 61 -77 75 -91 74 -178 -10 -182 -175 -315 -330 -315 -368 0 -16 20
-47 55 -88 30 -34 55 -71 55 -82 0 -23 -11 -45 -54 -113 -48 -73 -142 -277
-181 -390 -37 -107 -98 -332 -110 -406 -4 -25 -16 -51 -30 -64 -23 -21 -31
-23 -104 -17 -61 5 -82 3 -91 -8 -16 -19 -25 -386 -12 -508 6 -54 16 -105 23
-113 8 -10 34 -14 89 -14 108 0 124 -16 147 -145 39 -221 185 -575 309 -751
24 -33 48 -73 54 -88 12 -33 5 -47 -65 -126 -25 -28 -45 -59 -45 -70 0 -10 21
-42 48 -72 26 -29 74 -84 106 -121 88 -102 249 -237 282 -237 19 0 42 16 84
60 68 71 85 74 155 25 131 -93 378 -206 572 -261 269 -76 267 -75 280 -114 7
-19 12 -63 12 -96 1 -37 6 -65 14 -71 23 -19 295 -32 464 -23 90 5 167 11 173
15 5 3 10 44 10 91 0 94 16 134 54 134 23 0 133 23 211 45 28 7 70 19 95 25
79 21 262 97 350 145 47 26 99 54 115 63 17 8 65 39 107 68 43 30 85 54 94 54
8 0 43 -29 77 -65 81 -86 95 -86 190 2 157 146 327 332 327 359 0 9 -27 46
-60 82 -33 37 -60 75 -60 86 0 10 21 53 46 95 69 113 138 246 189 365 45 105
95 262 95 296 0 10 7 36 15 59 8 24 19 77 24 118 13 107 26 118 138 118 l86 0
9 30 c27 89 16 556 -13 592 -8 9 -37 13 -89 13 -99 0 -116 12 -131 95 -25 138
-98 347 -192 545 -45 97 -161 284 -191 309 -29 25 -19 58 39 121 75 82 74 95
-17 195 -149 162 -335 325 -372 325 -10 0 -45 -29 -78 -65 -33 -36 -66 -65
-73 -65 -8 0 -53 24 -102 54 -233 141 -462 231 -738 291 -182 39 -192 46 -182
143 9 82 2 100 -42 111 -65 16 -272 19 -435 5z m464 -540 c270 -43 528 -140
761 -284 120 -74 212 -151 352 -292 142 -144 264 -314 350 -490 49 -99 132
-337 147 -418 4 -25 14 -72 21 -105 21 -91 17 -471 -5 -600 -49 -281 -153
-543 -299 -753 -93 -135 -271 -337 -336 -382 -31 -22 -92 -67 -136 -99 -317
-235 -677 -360 -1065 -368 -168 -4 -242 2 -435 37 -331 58 -716 265 -945 507
-294 311 -452 605 -534 998 -93 446 -3 958 236 1350 85 138 150 225 247 327
256 271 553 442 936 541 210 54 486 67 705 31z"/>
<path d="M9825 16510 c-90 -11 -249 -55 -264 -74 -5 -6 -13 -44 -16 -83 -9
-85 0 -94 69 -75 34 9 44 8 59 -5 16 -15 17 -94 17 -1393 0 -1014 -3 -1379
-11 -1387 -7 -7 -30 -10 -60 -6 l-49 6 -2 -62 c-1 -33 -2 -69 -2 -78 -2 -36
246 -100 319 -83 22 5 58 7 81 4 53 -8 66 8 62 78 -3 50 -5 54 -40 70 -22 11
-40 27 -43 41 -3 12 -5 652 -3 1422 2 1093 6 1405 15 1422 7 12 30 27 50 34
62 19 66 26 59 93 -3 32 -11 65 -17 72 -12 15 -116 17 -224 4z"/>
<path d="M10172 16478 c-18 -18 -16 -192 2 -207 7 -6 34 -14 59 -17 30 -4 56
-16 76 -35 l31 -28 0 -1429 c0 -1271 2 -1431 15 -1442 13 -11 28 -8 87 16 40
16 85 38 100 49 l28 20 3 1336 c2 1454 -1 1378 56 1364 14 -4 57 -24 95 -46
106 -61 126 -46 126 97 0 65 -14 83 -105 130 -38 19 -83 44 -100 54 -115 70
-444 167 -473 138z"/>
<path d="M9256 16346 c-98 -57 -91 -31 -92 -334 -6 -1130 -9 -1284 -32 -1280
-11 2 -26 49 -52 163 -21 88 -44 187 -53 220 -32 123 -46 182 -62 265 -9 47
-23 112 -31 146 -8 33 -14 70 -14 83 0 12 -15 86 -34 164 -19 78 -37 157 -41
175 -9 46 -44 52 -95 17 -28 -19 -67 -70 -130 -171 -140 -222 -202 -366 -221
-516 -5 -45 -14 -88 -18 -97 -10 -20 -30 -182 -29 -241 0 -25 -1 -84 -2 -132
-4 -221 116 -580 275 -823 57 -87 178 -233 201 -242 53 -20 104 59 104 159 -1
43 -6 61 -30 93 -70 94 -123 180 -154 248 -131 283 -136 298 -162 467 -34 221
49 755 118 768 22 4 29 -12 63 -143 50 -190 54 -211 75 -319 11 -60 24 -116
29 -125 5 -9 12 -34 15 -56 4 -22 18 -74 31 -115 13 -41 33 -124 45 -185 12
-60 27 -135 35 -165 24 -96 84 -360 111 -485 38 -179 52 -239 63 -282 6 -21
11 -55 11 -75 0 -64 15 -87 75 -114 30 -14 66 -24 80 -22 l26 3 5 1050 c5
1004 12 1773 17 1880 l2 50 -35 2 c-24 2 -53 -8 -94 -31z"/>
<path d="M10890 16018 c0 -90 -5 -370 -10 -623 -6 -253 -15 -748 -21 -1100 -6
-352 -12 -667 -13 -700 l-1 -60 31 -3 c23 -2 43 6 75 30 74 57 89 88 90 187
11 652 14 736 29 739 11 2 62 -65 154 -203 77 -113 145 -210 152 -216 28 -23
52 1 94 97 26 59 40 106 38 123 -2 14 -93 155 -201 312 -108 158 -197 292
-197 299 0 7 66 122 148 256 248 412 240 388 170 494 -62 94 -74 91 -154 -35
-35 -55 -85 -135 -112 -178 -35 -58 -52 -77 -66 -75 -18 3 -19 15 -17 293 1
160 5 307 8 327 5 36 2 41 -72 118 -54 55 -86 80 -102 80 l-23 0 0 -162z"/>
<path d="M15545 16860 c-181 -17 -258 -29 -478 -74 -68 -14 -395 -116 -452
-142 -16 -7 -60 -27 -97 -43 -37 -17 -71 -31 -75 -31 -4 0 -46 -23 -93 -51
-47 -28 -94 -57 -105 -63 -59 -33 -264 -198 -304 -245 -25 -29 -62 -71 -82
-93 -20 -22 -54 -64 -75 -95 -22 -30 -56 -77 -76 -104 -21 -26 -38 -54 -38
-60 0 -7 -6 -20 -14 -28 -26 -29 -120 -285 -161 -436 -43 -161 -43 -265 1
-565 20 -142 26 -165 79 -315 50 -139 144 -329 204 -410 20 -27 47 -67 60 -87
12 -20 40 -58 61 -84 53 -65 272 -266 347 -320 117 -85 108 -99 -137 -213 -48
-23 -202 -124 -219 -144 -7 -9 -19 -17 -25 -17 -30 0 -222 -214 -252 -280 -13
-30 -40 -84 -58 -120 -46 -88 -66 -179 -66 -305 0 -125 27 -223 86 -313 46
-70 223 -234 301 -280 73 -43 133 -100 133 -127 0 -28 -36 -60 -85 -75 -22 -7
-44 -16 -50 -20 -36 -26 -204 -67 -329 -80 -101 -10 -323 -36 -431 -50 -148
-20 -314 -29 -685 -39 -212 -6 -434 -15 -495 -21 -204 -18 -906 -30 -2150 -35
-730 -3 -918 -1 -995 10 -52 7 -178 16 -280 20 -263 8 -1117 98 -1287 136 -23
5 -59 9 -80 9 -48 0 -162 22 -278 54 -188 51 -336 131 -464 251 -71 67 -88 97
-77 132 3 10 60 75 126 143 145 150 201 227 245 335 64 160 77 269 50 421 -14
81 -27 118 -71 204 -27 54 -134 188 -150 189 -7 1 -25 14 -42 29 -55 52 -320
209 -377 224 -11 2 -26 17 -34 31 -13 24 -12 29 3 46 10 11 37 29 61 40 54 25
193 135 259 204 64 68 153 179 197 247 88 134 171 397 183 578 5 73 -23 274
-59 427 -18 74 -87 253 -114 295 -9 14 -24 41 -33 61 -14 31 -54 95 -108 173
-42 61 -135 169 -191 223 -159 151 -198 184 -388 325 -113 84 -213 142 -346
202 -83 38 -161 73 -175 80 -37 18 -362 121 -460 146 -47 12 -107 25 -135 27
-27 3 -55 9 -60 13 -9 8 -56 13 -270 34 -27 2 -93 10 -145 16 -133 15 -471 20
-620 9 -276 -21 -364 -37 -560 -101 -102 -34 -204 -72 -228 -84 -23 -12 -59
-28 -79 -35 -42 -13 -166 -86 -171 -100 -2 -5 -18 -16 -36 -24 -36 -17 -146
-121 -192 -181 -81 -106 -115 -212 -117 -362 -1 -115 9 -155 73 -287 134 -278
148 -318 171 -470 17 -115 65 -265 112 -352 83 -153 169 -228 319 -279 74 -26
95 -29 199 -27 87 1 135 7 190 23 195 58 396 204 458 332 18 38 23 71 28 171
6 119 5 126 -21 182 -15 32 -41 77 -59 99 -19 23 -37 47 -41 54 -13 22 23 52
62 52 19 0 62 5 96 11 60 11 236 4 506 -20 154 -14 332 -48 625 -118 204 -48
305 -84 481 -169 62 -30 127 -60 145 -67 35 -13 44 -18 183 -100 71 -43 283
-231 295 -262 2 -5 12 -19 22 -30 42 -47 88 -168 100 -265 22 -175 -27 -326
-154 -475 -54 -63 -152 -145 -173 -145 -3 0 -20 -11 -36 -26 -19 -15 -37 -23
-47 -19 -30 13 -276 73 -356 88 -190 36 -621 79 -925 92 -174 7 -606 -13 -780
-37 -80 -11 -181 -24 -225 -29 -44 -6 -127 -19 -185 -30 -58 -10 -130 -23
-160 -29 -52 -9 -288 -70 -320 -83 -8 -3 -36 -13 -61 -21 -83 -27 -213 -92
-275 -138 -80 -60 -126 -119 -154 -195 -20 -55 -22 -76 -18 -170 6 -112 25
-188 77 -308 25 -57 26 -69 27 -230 1 -206 13 -249 98 -337 46 -47 67 -60 140
-87 48 -17 95 -31 104 -31 9 0 40 -7 67 -16 28 -9 68 -17 90 -19 22 -2 81 -8
130 -15 96 -13 312 -9 495 9 58 6 140 13 182 16 43 3 88 9 100 15 13 5 68 19
123 31 55 12 106 25 115 30 8 5 56 20 105 35 50 14 104 32 120 39 17 7 84 34
150 58 66 25 178 73 248 108 l128 63 107 -13 c59 -6 139 -18 177 -26 39 -7
102 -18 140 -24 92 -13 170 -33 340 -88 165 -53 218 -81 310 -165 70 -64 95
-106 95 -157 0 -26 -9 -34 -82 -77 -46 -26 -102 -62 -125 -78 -22 -17 -54 -38
-71 -47 -30 -17 -102 -129 -160 -251 -46 -94 -68 -230 -55 -332 8 -67 20 -101
68 -197 31 -65 75 -139 96 -165 21 -27 53 -68 71 -91 53 -68 303 -220 468
-284 41 -16 84 -34 95 -39 44 -22 340 -108 495 -145 36 -9 97 -24 135 -35 39
-10 135 -30 215 -44 80 -14 172 -30 205 -36 125 -23 153 -28 260 -44 61 -9
130 -21 155 -26 25 -6 95 -17 155 -25 61 -7 126 -19 146 -24 19 -6 64 -13 100
-15 82 -5 198 -19 379 -47 56 -8 152 -18 330 -33 25 -2 87 -9 139 -15 130 -16
522 -41 791 -50 207 -8 1086 -5 1295 3 172 7 330 18 345 23 8 3 80 6 160 8
233 4 496 24 715 54 217 30 655 100 666 107 10 6 175 41 254 55 114 19 332 77
426 114 52 20 121 45 153 56 158 54 420 215 522 321 55 57 127 168 170 262 32
70 42 171 25 259 -12 67 -102 278 -137 322 -13 17 -42 55 -63 85 -21 30 -68
88 -104 129 -36 40 -73 88 -83 106 -17 32 -17 35 1 82 28 74 112 148 245 216
61 31 118 57 125 57 8 0 39 11 69 25 30 14 65 25 78 25 13 0 66 11 118 24 118
30 265 46 436 48 l132 1 68 -38 c38 -22 90 -49 115 -62 25 -12 52 -29 59 -38
7 -8 18 -15 25 -15 7 0 39 -13 71 -29 57 -29 198 -95 239 -112 11 -5 47 -18
80 -30 33 -12 64 -25 69 -30 6 -5 21 -9 35 -9 26 0 100 -20 189 -51 29 -11 64
-19 77 -19 13 0 26 -4 30 -9 3 -5 36 -12 73 -16 37 -3 107 -13 156 -21 54 -8
161 -14 270 -14 163 0 188 2 261 25 135 41 184 75 268 187 54 72 76 152 86
314 8 115 15 154 41 229 62 178 84 274 83 370 0 58 -6 106 -17 134 -22 61
-113 146 -211 199 -194 104 -332 152 -670 232 -49 11 -115 27 -145 35 -157 38
-634 81 -905 81 -362 0 -835 -49 -1076 -111 -53 -14 -60 -14 -102 5 -115 51
-353 271 -483 445 -126 171 -190 345 -180 490 8 125 21 177 70 278 39 82 56
104 126 170 65 60 105 87 193 130 62 30 143 65 182 77 38 13 95 34 125 48 118
53 188 70 471 117 258 43 453 58 659 51 353 -12 545 -25 615 -39 266 -56 318
-74 355 -128 33 -46 24 -133 -30 -274 -39 -102 -41 -115 -37 -183 9 -128 60
-187 232 -272 139 -69 192 -81 380 -87 134 -5 168 -3 210 11 79 27 158 81 228
156 93 98 102 132 101 362 -1 120 -7 208 -19 274 -27 149 -18 238 39 404 25
75 46 146 46 158 0 11 10 45 22 74 16 40 21 75 22 144 1 88 0 92 -47 188 -63
127 -147 216 -299 318 -129 87 -141 93 -211 118 -29 9 -77 29 -107 43 -30 14
-66 28 -80 30 -14 3 -72 22 -130 42 -105 36 -127 42 -270 70 -41 8 -98 21
-127 29 -54 15 -172 29 -380 46 -177 15 -460 10 -688 -10z m610 -120 c55 -6
154 -15 220 -20 66 -6 163 -19 215 -30 52 -11 145 -29 207 -40 63 -11 158 -37
217 -60 59 -22 112 -40 119 -40 20 0 210 -94 302 -150 124 -75 244 -214 291
-337 16 -40 16 -57 5 -161 -12 -121 -29 -187 -89 -357 -34 -95 -36 -109 -41
-264 -5 -140 -8 -165 -23 -175 -14 -8 -24 -5 -50 20 -65 59 -120 96 -156 106
-20 5 -66 20 -102 33 -58 21 -294 87 -410 114 -390 94 -1142 150 -1495 111
-60 -6 -171 -15 -245 -20 -143 -8 -309 -39 -369 -69 -20 -9 -110 -43 -201 -75
-279 -97 -474 -208 -598 -339 -62 -67 -146 -191 -181 -270 -32 -71 -50 -90
-83 -85 -42 6 -83 137 -99 321 -15 163 2 303 64 532 70 259 157 404 391 643
104 106 148 144 220 186 173 103 258 145 369 187 392 145 621 191 1132 229 77
6 151 12 165 14 52 7 128 5 225 -4z m-11765 -66 c58 -8 134 -20 170 -25 36 -6
94 -15 129 -20 73 -10 206 -50 571 -174 182 -62 470 -211 575 -299 28 -22 84
-67 125 -98 175 -132 427 -421 523 -598 33 -61 93 -241 130 -392 35 -137 14
-445 -38 -584 -35 -94 -112 -237 -141 -265 -20 -18 -29 -21 -42 -13 -14 9 -18
35 -23 165 -6 142 -9 161 -42 250 -42 118 -99 200 -211 306 -185 176 -434 317
-766 436 -239 86 -603 173 -825 198 -260 29 -730 29 -875 -1 -25 -5 -76 -12
-115 -15 -38 -4 -92 -13 -120 -20 -27 -8 -89 -24 -138 -35 -108 -26 -282 -85
-316 -108 -14 -9 -48 -28 -74 -42 -27 -14 -76 -47 -109 -74 -76 -61 -89 -57
-104 40 -16 104 -59 231 -103 306 -37 63 -63 121 -133 298 -28 69 -29 79 -19
120 44 168 187 313 429 435 215 108 585 211 812 225 180 12 605 2 730 -16z
m-1040 -1343 c5 -11 10 -73 10 -139 0 -140 -5 -148 -90 -157 -68 -8 -113 9
-176 67 -50 46 -55 74 -25 125 20 33 89 84 144 108 50 22 124 19 137 -4z m240
-38 c100 -90 136 -223 93 -349 -33 -98 -210 -239 -336 -268 -85 -20 -127 -20
-219 -1 -145 30 -264 105 -326 203 -49 77 -49 87 -6 169 47 88 64 90 81 14 14
-66 35 -96 96 -138 86 -58 149 -75 262 -71 94 3 106 6 190 46 136 66 143 76
105 172 -11 28 -24 91 -30 142 -9 80 -9 93 6 109 10 11 20 19 24 19 5 0 31
-21 60 -47z m13437 -82 c133 -29 198 -49 227 -72 32 -25 32 -30 2 -66 l-25
-29 -117 4 c-73 3 -143 0 -186 -8 -94 -18 -103 -10 -80 82 18 69 43 108 72
108 9 0 57 -9 107 -19z m478 -255 c30 -31 48 -60 59 -97 20 -67 20 -85 -3
-134 -45 -100 -152 -172 -270 -182 -183 -15 -384 54 -464 159 -41 54 -44 83
-10 116 47 47 129 72 239 72 83 0 106 -4 171 -30 79 -32 115 -36 159 -20 26
10 27 13 21 67 -11 103 26 121 98 49z m-12624 -1166 c226 -10 300 -18 489 -51
214 -37 343 -71 499 -130 265 -100 392 -175 546 -322 118 -112 150 -158 190
-278 23 -67 24 -77 15 -187 -11 -139 -19 -170 -73 -282 -33 -70 -56 -100 -130
-174 -98 -96 -200 -169 -231 -164 -12 2 -38 28 -61 63 -45 66 -150 152 -212
174 -21 7 -51 19 -68 26 -124 53 -409 130 -575 154 -74 11 -157 26 -185 32
-27 6 -113 15 -190 19 -77 5 -187 14 -245 20 -156 16 -575 15 -617 -1 -13 -5
-88 -9 -166 -10 -200 0 -439 -23 -687 -64 -52 -8 -137 -20 -188 -25 -51 -6
-103 -15 -114 -21 -11 -6 -44 -15 -72 -19 -28 -5 -81 -14 -119 -21 -99 -19
-102 -14 -103 154 0 130 -1 136 -46 272 -72 216 -79 263 -57 364 17 81 69 131
210 200 250 123 520 186 1104 256 275 34 286 34 575 29 162 -3 392 -9 511 -14z
m11034 -240 c346 -15 552 -30 630 -45 39 -8 95 -16 125 -20 30 -3 96 -19 145
-35 50 -16 119 -36 155 -45 120 -31 247 -93 412 -202 90 -60 134 -110 153
-178 19 -64 17 -79 -30 -225 -52 -161 -64 -223 -74 -377 -8 -127 -12 -147 -37
-193 -51 -93 -79 -103 -154 -54 -19 12 -64 35 -100 49 -36 14 -87 37 -115 50
-27 13 -68 28 -90 34 -22 5 -67 21 -100 35 -33 14 -72 26 -86 26 -15 0 -80 14
-145 31 -184 48 -421 85 -754 118 -147 14 -550 7 -685 -13 -60 -8 -148 -21
-195 -27 -47 -6 -128 -24 -180 -40 -52 -15 -117 -33 -145 -39 -27 -6 -69 -20
-93 -31 -24 -11 -58 -23 -75 -26 -70 -13 -274 -145 -376 -243 -85 -80 -88 -80
-161 -20 -69 58 -211 215 -253 280 -22 36 -57 183 -57 244 1 110 90 289 210
419 110 119 260 232 388 293 197 93 353 136 630 175 35 4 66 10 70 13 22 14
260 39 417 46 286 11 327 11 570 0z m-9665 -1586 c118 -120 273 -229 391 -273
29 -12 95 -32 144 -46 50 -14 123 -35 164 -47 41 -11 99 -24 130 -28 31 -4
139 -21 241 -38 427 -71 435 -72 1140 -122 304 -22 713 -39 1000 -42 438 -4
1455 10 1590 22 63 6 331 13 595 16 579 6 660 8 1025 28 536 30 723 47 880 81
36 8 99 19 140 24 149 20 184 32 346 113 l81 40 36 -17 c42 -20 159 -151 191
-215 21 -41 77 -203 89 -258 3 -13 1 -51 -5 -85 -10 -56 -23 -89 -65 -172 -36
-70 -269 -275 -397 -349 -60 -35 -211 -91 -341 -126 -129 -35 -274 -78 -285
-85 -18 -11 -323 -74 -430 -89 -63 -9 -171 -24 -240 -35 -69 -10 -170 -24
-225 -30 -55 -6 -149 -18 -210 -26 -548 -73 -1196 -98 -2065 -80 -168 4 -456
8 -640 11 -184 2 -366 8 -405 13 -38 6 -131 15 -205 21 -74 6 -160 15 -190 20
-30 5 -126 16 -212 25 -87 8 -169 20 -183 25 -14 5 -92 19 -173 30 -81 11
-183 26 -227 35 -44 8 -120 21 -169 29 -49 9 -103 20 -120 26 -17 5 -78 17
-136 25 -194 29 -247 39 -650 131 -85 20 -197 49 -249 66 -52 16 -115 36 -140
43 -173 50 -375 142 -495 225 -99 69 -206 181 -245 257 -47 94 -81 205 -81
265 0 64 39 228 68 283 29 58 114 148 185 199 71 50 267 165 282 166 6 0 35
-25 65 -56z"/>
<path d="M15537 16403 c-11 -10 -8 -51 3 -58 15 -9 12 -51 -4 -64 -8 -7 -44
-19 -82 -29 -72 -18 -97 -40 -78 -69 6 -9 24 -21 40 -25 75 -19 164 -140 164
-221 0 -29 -7 -46 -29 -68 -16 -16 -35 -29 -42 -29 -7 0 -36 24 -64 53 -37 38
-59 73 -78 123 -36 92 -70 141 -114 159 -48 20 -111 19 -153 -3 -112 -61 -102
-313 17 -411 69 -57 147 -54 212 9 23 22 44 40 47 40 3 0 22 -14 43 -30 21
-17 54 -33 73 -36 45 -8 120 24 143 60 20 30 46 34 66 9 39 -46 145 -57 199
-20 48 32 70 80 70 153 0 157 -103 292 -217 282 -30 -2 -39 -7 -41 -25 -4 -24
9 -38 87 -98 66 -51 109 -131 90 -167 -34 -66 -73 -75 -135 -29 -61 44 -88 79
-134 169 l-42 82 27 46 c26 45 27 50 17 111 -6 36 -16 71 -23 79 -12 14 -51
19 -62 7z m-321 -330 c32 -20 63 -80 70 -136 5 -37 2 -47 -21 -75 -15 -18 -35
-32 -45 -32 -9 0 -36 20 -58 44 -33 36 -41 53 -47 99 -8 61 3 93 38 107 31 12
35 12 63 -7z"/>
<path d="M16394 16395 c-3 -8 -1 -29 5 -46 7 -22 8 -37 0 -51 -11 -21 -6 -21
-185 -2 -39 5 -53 2 -63 -10 -22 -26 1 -66 38 -66 32 0 56 -22 47 -45 -4 -10
-19 -15 -50 -15 -25 0 -48 -5 -52 -11 -3 -6 -1 -28 6 -49 11 -33 10 -45 -4
-79 -24 -61 -21 -140 7 -182 28 -42 67 -61 132 -66 66 -5 112 20 143 78 21 38
23 53 19 116 -5 62 -3 76 15 98 28 36 12 75 -31 75 -63 0 -65 56 -3 72 84 22
83 197 -1 198 -10 0 -20 -7 -23 -15z m-74 -382 c43 -40 49 -84 17 -117 -32
-32 -58 -33 -91 -3 -40 34 -43 77 -11 115 33 39 46 40 85 5z"/>
<path d="M17034 16311 c-23 -10 -49 -29 -58 -42 -22 -32 -20 -82 3 -103 27
-25 82 -18 97 12 19 39 31 47 49 32 25 -21 18 -59 -19 -96 -41 -41 -55 -42
-171 -8 -50 14 -108 30 -130 35 -22 6 -57 14 -77 20 -45 12 -78 -2 -78 -32 0
-24 14 -30 174 -68 140 -33 162 -45 196 -116 22 -46 25 -89 9 -132 -12 -33
-57 -83 -75 -83 -26 0 -63 42 -70 78 -12 75 -12 75 -60 68 -41 -5 -45 -4 -59
24 -22 43 -56 62 -106 58 -50 -4 -77 -33 -89 -99 -24 -128 63 -208 180 -166
l45 16 35 -34 c41 -39 77 -55 127 -55 78 0 164 140 166 270 1 36 -2 77 -6 92
-6 24 -2 34 37 71 82 78 85 175 6 238 -48 38 -77 43 -126 20z"/>
<path d="M14575 16103 c-37 -5 -135 -31 -276 -72 -58 -17 -127 -34 -153 -37
-44 -6 -46 -8 -46 -39 0 -43 16 -48 96 -33 46 8 68 8 75 1 20 -20 -6 -46 -67
-67 -54 -19 -59 -24 -59 -51 0 -27 3 -30 40 -35 l40 -5 6 -68 c6 -75 24 -107
79 -144 66 -46 187 -15 222 57 33 65 21 145 -34 222 -10 14 -8 21 10 41 25 27
29 55 7 63 -8 3 -35 -2 -60 -12 -46 -17 -47 -17 -68 4 -21 22 -21 22 -2 42 31
30 196 73 261 68 69 -6 127 -44 169 -113 25 -40 30 -59 30 -111 0 -56 -3 -66
-29 -93 -34 -36 -74 -41 -99 -13 -27 30 -21 41 21 35 50 -7 67 12 59 70 -7 52
-44 87 -92 87 -84 0 -126 -145 -66 -229 63 -89 201 -70 255 34 17 33 21 56 19
128 -1 79 -5 94 -35 149 -29 52 -44 67 -94 95 -60 33 -111 40 -209 26z m-145
-339 c39 -45 38 -87 -2 -117 -23 -17 -31 -18 -56 -8 -16 7 -39 25 -51 42 -24
32 -19 51 22 97 29 31 50 28 87 -14z"/>
<path d="M17284 15982 c-63 -40 -98 -130 -96 -244 2 -118 41 -202 91 -196 21
2 27 9 29 34 2 18 -4 49 -13 70 -29 68 -36 127 -18 147 20 21 37 22 53 2 22
-27 89 -16 114 18 30 41 30 128 -1 158 -31 32 -117 37 -159 11z"/>
<path d="M4072 16408 c-9 -11 -13 -93 -14 -299 l-3 -284 28 -3 c49 -6 57 11
57 113 0 76 3 95 18 108 46 42 97 -1 162 -138 42 -88 58 -101 111 -93 39 5 34
41 -20 145 -28 53 -51 102 -51 109 0 7 14 22 30 34 45 32 60 69 60 147 0 80
-21 122 -72 149 -47 24 -288 34 -306 12z m247 -124 c38 -32 39 -53 3 -87 -22
-21 -38 -27 -75 -27 -55 0 -87 25 -87 67 0 70 97 99 159 47z"/>
<path d="M3570 16377 c-48 -15 -104 -75 -124 -132 -23 -68 -21 -191 4 -275 40
-133 110 -190 234 -190 103 0 155 32 195 120 17 37 21 66 21 155 0 118 -18
182 -70 255 -47 66 -166 97 -260 67z m141 -120 c18 -12 43 -37 55 -54 26 -39
49 -142 40 -185 -10 -49 -50 -103 -90 -122 -34 -16 -38 -16 -72 0 -95 45 -142
211 -89 314 17 32 71 70 101 70 12 0 36 -10 55 -23z"/>
<path d="M4658 16338 c-11 -8 -22 -44 -32 -98 -88 -498 -86 -470 -39 -484 40
-13 60 8 67 70 7 64 17 87 54 127 48 50 64 34 98 -95 37 -139 40 -146 86 -159
49 -13 68 -7 68 22 0 12 -23 93 -51 181 -59 187 -62 171 56 270 92 76 99 103
31 113 -24 4 -54 4 -66 0 -12 -4 -58 -40 -102 -81 -111 -102 -131 -98 -104 20
18 76 19 86 8 103 -12 19 -55 25 -74 11z"/>
<path d="M3175 16303 c-19 -18 -18 -44 9 -188 31 -168 31 -157 11 -154 -9 2
-48 54 -85 114 -100 162 -97 159 -153 151 -61 -9 -71 -27 -57 -104 22 -125 38
-246 34 -254 -14 -21 -34 1 -94 103 -89 152 -95 159 -136 159 -28 0 -35 -4
-40 -25 -5 -20 20 -69 126 -248 72 -122 141 -230 153 -240 15 -13 30 -17 51
-13 60 12 61 17 37 200 -25 192 -25 206 -8 206 6 0 56 -68 110 -150 94 -145
98 -150 131 -150 19 0 44 8 57 18 l22 19 -46 278 c-26 152 -50 281 -53 286 -9
15 -52 10 -69 -8z"/>
<path d="M5533 16098 c-41 -66 -243 -485 -241 -501 4 -30 32 -43 65 -32 24 9
45 44 146 244 64 129 117 242 117 252 0 39 -67 67 -87 37z"/>
<path d="M5779 15937 c-72 -38 -108 -135 -78 -213 5 -16 35 -60 65 -99 29 -39
54 -81 54 -92 0 -21 -51 -73 -71 -73 -20 0 -68 30 -88 56 -15 20 -21 41 -21
81 0 48 -3 55 -26 65 -37 17 -57 0 -73 -64 -13 -50 -13 -60 3 -101 34 -89 108
-136 215 -137 61 0 66 2 101 38 47 50 70 100 70 151 0 54 -18 95 -67 154 -22
27 -46 60 -54 73 -12 22 -10 27 13 51 25 24 29 25 58 13 39 -16 62 -51 70
-104 5 -40 6 -41 44 -41 37 0 40 2 49 35 22 85 -19 165 -107 206 -64 30 -101
30 -157 1z"/>
<path d="M4097 13511 c-62 -4 -91 -10 -98 -21 -11 -17 -4 -226 14 -434 13
-144 21 -159 73 -135 l29 14 -4 97 c-3 87 -1 98 18 117 12 12 24 21 29 21 25
0 75 -47 117 -111 75 -113 82 -119 132 -119 40 0 43 2 43 26 0 29 -67 149 -99
178 -28 25 -27 32 13 77 45 49 57 95 46 166 -21 127 -55 141 -313 124z m186
-119 c34 -36 34 -52 -2 -86 -40 -39 -129 -48 -160 -17 -26 26 -28 86 -4 113
12 14 31 18 78 18 54 0 64 -3 88 -28z"/>
<path d="M4673 13499 c-18 -5 -44 -25 -60 -46 -24 -32 -28 -46 -28 -104 0 -60
3 -71 31 -106 24 -30 47 -44 107 -65 90 -32 124 -52 133 -80 8 -27 -14 -66
-48 -84 -56 -29 -100 -12 -144 57 -23 36 -28 40 -62 37 -34 -3 -37 -5 -40 -38
-4 -55 34 -120 87 -147 58 -30 166 -32 228 -4 99 45 121 218 39 296 -19 18
-61 39 -103 53 -109 35 -153 90 -101 126 38 27 74 20 123 -25 36 -33 50 -40
77 -37 32 3 33 5 32 44 -1 53 -32 97 -84 118 -44 17 -136 20 -187 5z"/>
<path d="M3537 13485 c-52 -18 -82 -48 -115 -114 -24 -50 -27 -66 -26 -156 3
-208 78 -309 241 -323 88 -8 185 44 222 117 63 123 40 340 -46 423 -21 20 -55
44 -75 53 -46 19 -149 19 -201 0z m153 -95 c65 -33 100 -106 100 -209 0 -65
-18 -107 -64 -151 -47 -44 -97 -47 -148 -8 -42 32 -65 77 -79 155 -18 94 16
174 89 213 47 24 54 24 102 0z"/>
<path d="M5151 13446 c-7 -8 -23 -101 -37 -208 -14 -106 -30 -226 -35 -266
-11 -86 -4 -102 47 -102 43 0 50 14 62 125 14 126 31 137 164 104 54 -14 60
-31 47 -150 -9 -94 -9 -105 7 -116 23 -17 59 -17 71 0 6 6 18 66 27 132 8 66
25 187 36 269 22 163 21 168 -32 181 -37 9 -56 -23 -64 -113 -9 -96 -21 -107
-111 -98 -51 5 -74 13 -90 29 -22 22 -22 25 -11 108 6 47 8 94 5 103 -8 20
-70 22 -86 2z"/>
<path d="M3218 13433 c-27 -7 -31 -35 -27 -192 4 -129 2 -146 -13 -149 -12 -2
-29 24 -67 105 -90 192 -80 178 -135 176 -27 -1 -55 -7 -62 -15 -9 -9 -15 -64
-21 -173 -10 -207 -18 -211 -93 -39 -67 154 -74 164 -109 164 -32 0 -51 -16
-51 -43 0 -24 198 -475 219 -500 12 -15 25 -18 54 -14 67 9 67 8 67 218 0 259
9 261 115 29 81 -176 87 -184 139 -175 69 11 67 -3 60 309 -4 159 -11 286 -17
294 -9 12 -27 14 -59 5z"/>
<path d="M5675 13348 c-5 -14 -35 -217 -60 -399 -8 -58 -17 -113 -21 -122 -11
-29 14 -57 50 -57 53 0 52 -3 86 245 4 33 16 110 25 172 9 62 15 125 13 140
-3 25 -7 28 -46 31 -28 2 -44 -1 -47 -10z"/>
<path d="M5942 13263 c-5 -10 -32 -92 -61 -183 -29 -91 -64 -194 -77 -230 -32
-87 -32 -127 1 -142 43 -20 69 1 89 71 9 34 28 73 40 88 l24 27 54 -17 c72
-22 144 -22 188 2 72 38 113 185 75 265 -21 43 -45 57 -179 102 -113 38 -142
41 -154 17z m185 -148 c12 -9 30 -27 39 -41 16 -24 16 -27 -3 -52 -11 -15 -32
-34 -46 -42 -23 -13 -31 -13 -68 0 -23 8 -47 22 -52 31 -14 22 0 86 25 111 22
22 64 20 105 -7z"/>
<path d="M14463 13271 c-43 -20 -73 -62 -73 -101 0 -24 18 -61 34 -72 20 -14
98 -8 127 9 32 19 49 11 33 -15 -16 -26 -70 -49 -172 -75 -102 -26 -115 -34
-110 -68 4 -31 43 -36 106 -15 41 14 48 14 61 1 13 -13 13 -17 -3 -33 -9 -11
-32 -22 -49 -25 -49 -8 -106 -34 -113 -52 -9 -23 23 -65 49 -65 30 0 47 -18
47 -49 0 -15 9 -45 20 -69 25 -56 79 -81 170 -82 74 0 127 21 161 64 27 35 44
33 59 -6 8 -18 20 -41 28 -50 40 -48 157 -24 186 36 24 51 20 79 -24 162 -22
42 -40 82 -40 90 0 7 -12 17 -26 20 -32 8 -47 -10 -39 -46 19 -92 20 -88 -20
-104 -55 -23 -63 -20 -75 27 -5 23 -15 57 -21 75 -9 27 -8 38 6 58 9 14 15 39
13 57 -2 26 -8 33 -30 35 -15 2 -40 -4 -57 -12 -35 -19 -77 -21 -87 -5 -4 7
11 28 35 50 37 35 41 43 41 86 -1 72 -37 152 -80 174 -44 24 -104 24 -157 0z
m203 -465 c19 -19 34 -41 34 -50 0 -25 -58 -84 -90 -91 -53 -12 -129 50 -115
94 8 27 42 55 84 67 52 17 50 17 87 -20z"/>
<path d="M16861 13271 c-8 -5 -17 -26 -20 -47 -5 -32 -11 -40 -31 -43 -39 -5
-250 30 -298 51 -24 10 -52 18 -61 18 -27 0 -51 -33 -51 -69 0 -27 5 -34 35
-47 19 -7 42 -14 51 -14 37 0 53 -29 47 -81 -7 -57 6 -79 47 -79 45 0 58 9 71
48 20 62 23 63 118 56 79 -6 89 -4 121 18 52 34 75 89 64 147 -9 43 -11 46
-44 49 -19 1 -41 -2 -49 -7z"/>
<path d="M15612 13240 c-77 -5 -140 -14 -148 -21 -26 -22 -13 -62 26 -81 54
-25 120 -101 120 -138 0 -64 -51 -131 -121 -160 -47 -20 -145 -1 -203 39 -74
51 -114 124 -82 150 13 11 20 11 41 -3 14 -9 45 -16 75 -16 71 0 100 29 100
100 0 42 -5 55 -26 75 -74 68 -191 56 -258 -28 -28 -35 -31 -47 -35 -122 -4
-113 15 -169 78 -228 41 -38 59 -47 123 -62 177 -39 371 43 407 172 15 54 13
128 -4 170 -23 54 -5 67 93 71 61 3 89 -1 136 -18 105 -40 178 -140 142 -195
-22 -34 -33 -31 -50 9 -20 49 -57 70 -108 63 -115 -15 -149 -181 -48 -240 19
-11 50 -17 94 -17 115 0 186 55 206 160 29 151 -3 227 -120 289 -57 30 -67 32
-183 36 -67 2 -182 0 -255 -5z"/>
<path d="M16743 12960 c-28 -11 -29 -35 -6 -101 14 -37 15 -53 7 -67 -20 -31
-46 -20 -74 33 -21 40 -37 56 -81 78 -46 24 -63 28 -114 25 -84 -6 -130 -30
-149 -79 -35 -86 -13 -149 51 -149 28 0 31 3 36 41 7 52 40 89 81 89 44 -1 70
-26 104 -101 16 -36 40 -73 53 -83 33 -23 110 -21 142 4 34 27 57 99 57 181 0
122 -31 159 -107 129z"/>
<path d="M6195 11506 c-31 -22 -7 -63 42 -71 122 -21 321 -70 336 -83 20 -18
22 -43 5 -60 -17 -17 -71 -15 -166 8 -191 46 -271 6 -260 -129 4 -49 9 -59 43
-88 47 -40 138 -72 163 -57 9 6 18 21 20 32 3 16 -5 25 -35 37 -49 21 -83 53
-83 80 0 12 13 34 29 49 l30 29 92 -18 c69 -14 100 -25 121 -44 l30 -26 -17
-64 c-23 -88 -18 -113 23 -123 49 -13 70 3 77 60 4 26 13 74 21 107 9 33 19
77 23 99 5 21 19 49 32 61 l24 23 75 -18 c41 -10 131 -30 200 -45 126 -27 150
-36 150 -61 0 -18 -43 -46 -61 -39 -30 11 -204 45 -232 45 -100 0 -167 -119
-122 -214 33 -69 141 -116 168 -74 9 14 3 24 -36 61 -26 24 -47 51 -47 61 0
24 63 86 87 86 10 -1 47 -7 83 -15 70 -15 100 -39 100 -82 0 -49 50 -113 100
-128 14 -5 66 -11 115 -14 84 -6 90 -7 93 -29 5 -35 -23 -70 -69 -84 -68 -20
-96 -85 -64 -147 17 -34 102 -74 148 -69 26 2 32 7 32 28 0 19 -6 25 -33 31
-19 4 -38 11 -44 17 -16 16 -5 54 22 73 21 16 31 17 62 9 42 -12 98 -69 117
-120 25 -69 46 -85 76 -60 38 31 -5 130 -87 201 -68 59 -67 40 -21 244 17 80
30 117 47 134 l24 23 88 -20 c49 -11 163 -35 254 -52 135 -26 170 -36 190 -56
19 -19 22 -28 14 -41 -22 -36 -38 -37 -162 -13 -66 12 -127 20 -136 17 -25
-10 -19 -34 19 -68 42 -38 44 -53 10 -75 -22 -14 -31 -15 -71 -4 -52 15 -84
50 -84 92 0 37 -37 57 -75 40 -20 -9 -25 -19 -25 -48 0 -51 26 -89 84 -121 45
-24 62 -27 142 -28 100 0 134 15 134 60 0 48 63 71 108 39 26 -18 29 -57 7
-128 -18 -59 -12 -84 20 -92 69 -17 82 3 113 191 13 74 26 123 38 136 24 27
75 25 102 -4 25 -26 27 -7 -27 -250 -26 -111 -18 -137 41 -137 35 0 53 28 66
105 24 132 44 211 59 227 9 10 34 18 61 20 74 5 86 61 16 80 -24 7 -359 77
-454 95 -167 32 -335 67 -375 78 -27 7 -79 18 -115 24 -69 11 -439 86 -468 95
-9 3 -102 24 -207 45 -104 22 -273 59 -375 81 -102 23 -212 46 -245 51 -33 5
-80 16 -104 24 -54 18 -53 18 -76 1z m1200 -327 c68 -17 77 -32 63 -110 -23
-128 -113 -165 -200 -82 -50 48 -46 100 12 167 35 39 53 43 125 25z"/>
<path d="M13715 11309 c-29 -9 -180 -42 -360 -80 -49 -11 -148 -32 -220 -49
-71 -16 -215 -48 -320 -70 -104 -22 -217 -47 -250 -55 -45 -11 -405 -35 -538
-35 -4 0 -33 24 -65 53 -144 132 -306 190 -425 152 -89 -28 -108 -49 -116
-129 -8 -78 -23 -96 -80 -96 -20 0 -166 -7 -326 -15 -374 -19 -526 -19 -569
-1 -45 19 -116 94 -116 124 0 36 18 62 56 78 22 9 34 21 34 34 0 17 -7 20 -50
20 -41 0 -56 -5 -75 -25 -39 -38 -28 -102 24 -149 26 -23 27 -48 3 -69 -17
-15 -76 -16 -673 -12 l-654 5 -13 -21 c-11 -18 -11 -24 4 -40 15 -17 32 -19
156 -19 177 0 178 -1 178 -129 0 -105 -15 -131 -84 -151 -53 -15 -91 -1 -115
42 -13 23 -13 30 -1 53 17 32 58 55 100 55 25 0 30 4 30 25 0 20 -6 25 -35 31
-76 14 -169 -17 -198 -65 -38 -65 -12 -147 58 -181 46 -22 136 -27 181 -10 24
9 31 7 59 -20 33 -32 81 -40 103 -18 7 7 12 42 12 89 0 61 4 81 20 102 11 14
20 30 20 36 0 18 44 30 89 24 29 -4 49 -14 66 -35 28 -33 30 -40 14 -71 -19
-38 -52 -57 -96 -57 -36 0 -43 -3 -43 -20 0 -31 36 -43 110 -38 104 8 140 41
140 131 0 55 -31 104 -77 124 -50 20 -161 14 -175 -10 -12 -22 -31 -22 -51 1
-22 25 -21 48 3 72 19 19 33 20 269 20 137 0 257 -3 265 -6 9 -4 21 -15 27
-26 18 -33 -23 -68 -80 -68 -53 0 -106 -28 -116 -60 -11 -34 4 -87 29 -108 32
-25 126 -46 167 -38 44 8 99 59 99 92 0 60 85 87 130 39 21 -22 22 -31 17
-104 -6 -88 0 -101 48 -101 52 0 55 10 55 175 0 132 2 154 18 168 14 13 57 16
265 19 288 3 270 10 280 -99 6 -57 4 -72 -11 -92 -36 -48 -89 -83 -135 -88
-39 -5 -46 -2 -65 22 -27 34 -27 38 1 70 14 17 37 28 67 33 39 7 45 11 45 32
l0 25 -135 -3 c-157 -4 -170 -7 -170 -33 0 -11 8 -22 18 -26 38 -14 50 -33 45
-74 -5 -35 -2 -42 33 -74 36 -34 41 -35 114 -35 56 0 86 5 115 20 51 26 61 25
82 -7 23 -36 33 -43 64 -43 49 0 53 16 46 189 -6 156 -6 158 16 180 29 26 57
27 89 1 24 -19 25 -24 30 -175 4 -102 10 -160 18 -170 14 -17 71 -20 87 -4 7
7 8 66 5 175 -4 148 -3 166 13 184 26 28 85 27 112 -2 18 -20 21 -41 27 -172
4 -83 12 -156 18 -163 13 -17 74 -17 85 -1 4 7 6 86 4 174 -4 200 -8 194 145
194 102 0 102 0 128 -31 33 -39 33 -54 -3 -90 -27 -27 -35 -29 -100 -29 -61 0
-70 -2 -76 -20 -7 -22 10 -50 29 -50 6 0 41 -32 77 -72 l66 -72 70 -4 c56 -3
72 -1 83 13 21 26 1 49 -47 53 -72 5 -108 69 -51 91 45 17 78 61 78 103 0 22
-5 49 -11 60 -9 16 -7 24 7 38 16 15 44 20 170 25 147 7 152 7 173 -14 13 -13
21 -32 19 -44 -3 -21 -7 -22 -78 -19 -135 7 -200 -37 -200 -134 0 -45 4 -57
29 -81 46 -47 126 -64 189 -42 27 9 36 8 61 -10 34 -25 93 -28 111 -6 10 12
11 51 6 165 -6 130 -5 152 10 175 13 20 25 25 56 25 21 0 60 6 86 14 74 22
366 86 394 86 64 0 62 -61 -2 -105 -43 -29 -50 -30 -150 -30 -132 0 -172 -17
-208 -89 -29 -57 -24 -100 15 -146 35 -42 74 -60 125 -59 70 2 93 12 93 39 0
22 -5 26 -48 30 -50 6 -80 28 -91 67 -5 15 2 31 24 56 55 63 119 57 155 -14
12 -22 22 -29 38 -27 18 2 23 12 28 47 6 43 36 80 67 81 19 0 49 -57 57 -109
12 -81 44 -108 96 -81 24 13 25 54 3 135 -8 33 -22 96 -30 139 -14 75 -14 80
3 96 17 16 180 60 221 60 24 0 42 -19 42 -46 0 -28 -17 -41 -79 -60 -85 -25
-119 -80 -86 -140 19 -35 74 -64 123 -64 41 0 117 28 137 50 10 11 20 42 23
69 5 57 29 85 78 94 49 9 80 -37 100 -146 8 -47 36 -63 78 -47 27 10 28 12 23
63 -3 28 -15 93 -27 142 -12 50 -24 100 -27 113 -6 27 21 62 48 62 28 0 37 49
14 67 -21 15 -46 15 -90 2z m-1946 -196 c76 -39 103 -65 86 -82 -6 -5 -74 -12
-152 -16 l-142 -7 -26 26 c-14 14 -25 30 -25 37 0 6 18 29 40 52 39 39 42 40
93 34 31 -4 82 -22 126 -44z m525 -309 c23 -59 -23 -124 -88 -124 -38 0 -86
33 -86 59 0 28 47 64 93 72 67 11 74 10 81 -7z"/>
<path d="M13645 10775 c-5 -2 -22 -6 -37 -9 -21 -5 -28 -12 -28 -31 0 -21 5
-25 30 -25 40 0 71 -21 106 -71 24 -36 31 -40 63 -37 52 4 54 40 4 110 -20 29
-42 56 -48 60 -10 8 -71 9 -90 3z"/>
<path d="M6254 10321 c-2 -2 -81 -7 -176 -11 -155 -6 -380 -33 -510 -60 -123
-26 -151 -32 -268 -61 -69 -17 -143 -34 -165 -39 -56 -11 -130 -34 -195 -59
-72 -28 -127 -27 -214 5 -78 28 -222 60 -331 74 -38 4 -84 11 -101 15 -37 8
-255 -12 -268 -26 -6 -5 -22 -9 -37 -9 -47 0 -89 -20 -95 -46 -10 -38 12 -75
82 -144 35 -36 64 -72 64 -81 0 -25 -47 -58 -92 -65 -21 -4 -41 -11 -44 -15
-3 -5 -21 -9 -40 -9 -19 0 -51 -7 -72 -16 -20 -8 -61 -19 -89 -24 -29 -5 -86
-25 -127 -44 -42 -20 -80 -36 -86 -36 -5 0 -10 -9 -10 -19 0 -16 19 -25 103
-50 56 -17 131 -40 167 -50 96 -29 411 -90 520 -101 52 -5 151 -10 220 -10
122 0 127 -1 186 -33 84 -45 161 -91 273 -166 53 -35 108 -68 122 -73 14 -5
105 -49 202 -97 96 -49 204 -99 239 -111 34 -12 70 -28 78 -35 9 -8 67 -32
130 -54 63 -22 149 -54 190 -71 107 -45 402 -147 490 -170 59 -15 90 -36 90
-61 0 -11 -11 -42 -25 -69 -25 -50 -31 -85 -17 -106 4 -7 41 -23 82 -37 61
-21 97 -26 195 -28 221 -4 352 26 498 113 191 114 325 199 340 216 28 32 55
136 62 243 7 104 6 107 -16 123 -28 19 -109 21 -228 5 -75 -10 -89 -9 -150 10
-101 32 -221 18 -221 -26 0 -16 5 -16 31 -2 16 8 25 7 40 -7 10 -9 19 -21 19
-25 0 -7 -124 -104 -158 -123 -19 -11 -52 22 -52 51 0 15 8 27 23 32 20 8 21
10 4 16 -14 6 -25 0 -42 -21 -32 -41 -84 -39 -148 4 -26 17 -50 32 -52 32 -2
0 -39 22 -82 50 -43 27 -81 50 -86 50 -4 0 -67 41 -141 90 -73 50 -137 90
-140 90 -4 0 -33 17 -64 37 -31 20 -77 47 -102 60 -52 27 -96 53 -172 104 -29
19 -77 48 -105 64 -29 15 -60 39 -69 53 -15 23 -15 26 3 44 11 10 41 23 69 27
98 18 374 124 531 204 124 64 406 240 449 281 55 53 61 97 17 119 -46 24 -203
64 -278 72 -79 8 -245 12 -251 6z m254 -110 c74 -5 107 -12 119 -24 15 -15 15
-18 -2 -37 -11 -12 -46 -37 -79 -58 -34 -20 -88 -56 -121 -80 -70 -52 -183
-110 -275 -142 -36 -12 -69 -26 -75 -30 -43 -33 -399 -152 -525 -175 -52 -10
-101 -19 -107 -21 -19 -5 -16 -59 5 -76 9 -9 55 -31 102 -49 55 -22 107 -52
150 -86 37 -31 83 -58 107 -64 23 -6 51 -22 64 -35 l22 -24 -26 -38 c-15 -21
-27 -46 -27 -55 0 -26 45 -67 75 -67 22 0 25 4 25 38 0 27 7 45 21 58 20 18
22 18 82 -14 34 -18 68 -32 74 -32 18 0 93 -69 93 -86 0 -7 -11 -21 -25 -30
-15 -10 -25 -26 -25 -41 0 -21 4 -24 32 -21 24 2 36 10 46 31 10 21 20 27 46
27 51 0 75 -41 40 -70 -8 -8 -14 -25 -12 -39 2 -21 9 -27 35 -29 17 -2 46 4
65 14 l32 17 36 -40 c22 -26 47 -43 67 -46 43 -8 172 -86 191 -115 14 -21 13
-25 -8 -47 -24 -25 -98 -55 -137 -55 -13 0 -34 6 -46 14 -12 8 -65 24 -118 35
-350 72 -769 243 -1193 485 -139 80 -591 375 -686 448 -35 28 -172 117 -234
154 -50 29 -152 109 -246 193 l-45 39 21 22 c27 28 121 40 219 29 175 -19 252
-32 272 -45 21 -13 22 -20 17 -72 l-6 -59 43 -35 c47 -38 81 -58 98 -58 6 0
22 18 37 41 31 49 60 63 314 149 187 63 357 110 396 110 11 0 99 15 195 34
240 47 332 59 408 52 36 -3 102 -2 146 3 105 11 197 12 323 2z m-2352 -456
c29 -8 62 -27 79 -46 17 -17 72 -60 123 -96 50 -35 92 -68 92 -73 0 -4 -7 -13
-15 -20 -20 -17 -148 -1 -366 46 -37 8 -80 14 -96 14 -16 0 -54 7 -84 16 -30
9 -79 22 -109 28 -44 9 -55 15 -55 30 0 22 47 36 325 101 30 7 55 13 56 14 0
0 23 -6 50 -14z m3338 -826 c15 -12 26 -30 26 -45 0 -30 -33 -64 -63 -64 -31
0 -298 -84 -371 -116 -68 -30 -126 -29 -159 5 l-21 21 22 23 c61 65 235 134
452 181 86 19 83 19 114 -5z"/>
<path d="M5362 9504 c-28 -20 -30 -69 -3 -84 11 -5 36 -10 57 -10 28 0 46 -8
75 -35 22 -19 45 -35 53 -35 23 0 38 27 34 62 -3 32 -5 33 -50 36 -42 3 -52 8
-80 43 -34 42 -52 47 -86 23z"/>
<path d="M11025 9179 c-22 -48 -101 -121 -167 -155 -61 -31 -66 -62 -13 -87
45 -21 60 -21 97 1 28 16 30 16 44 -2 16 -23 17 -32 15 -255 0 -91 -5 -169
-10 -174 -12 -12 -79 11 -108 37 -17 14 -23 30 -23 62 0 68 2 68 -285 61 -400
-10 -475 5 -475 100 0 34 -5 46 -25 59 -30 20 -88 15 -165 -14 -30 -11 -86
-30 -125 -41 -38 -11 -85 -30 -102 -41 l-33 -20 0 -105 c0 -102 -1 -107 -27
-131 -29 -27 -66 -40 -82 -29 -6 3 -11 33 -11 66 0 84 -19 125 -61 132 -64 9
-293 -60 -340 -103 -29 -28 -36 -61 -43 -203 -2 -37 -10 -74 -17 -83 -25 -31
-70 -46 -113 -40 -38 6 -44 4 -56 -19 -22 -40 -48 -50 -72 -28 -20 18 -21 17
-52 -18 -17 -20 -48 -46 -68 -58 -41 -24 -58 -64 -58 -135 0 -51 -42 -91 -138
-130 -39 -16 -74 -36 -77 -44 -3 -7 -5 -51 -5 -96 0 -96 -1 -97 -103 -145 -77
-36 -98 -38 -120 -13 -20 22 -23 124 -6 181 15 50 -1 91 -36 91 -29 0 -27 10
-29 -165 -1 -156 -13 -183 -96 -210 -28 -9 -50 -21 -50 -26 0 -6 -29 -24 -65
-40 -54 -26 -65 -35 -65 -56 0 -27 38 -98 84 -156 l30 -38 -21 -20 c-19 -20
-22 -20 -73 -5 -30 9 -67 16 -83 16 -23 0 -28 -4 -25 -21 5 -34 76 -55 213
-63 108 -6 130 -4 225 19 118 28 222 32 266 10 39 -19 156 -30 228 -21 45 6
56 11 56 26 0 16 -10 18 -107 18 -119 0 -166 10 -171 35 -5 26 31 36 188 51
123 11 161 11 250 -1 58 -7 241 -16 407 -20 269 -5 313 -4 393 13 l90 18 30
-22 c36 -27 61 -28 136 -2 32 12 95 24 139 27 73 5 94 14 95 36 0 14 -205 8
-254 -9 -49 -17 -62 -15 -53 9 8 22 65 47 105 47 44 0 134 16 232 40 186 47
223 49 400 15 86 -16 112 -17 280 -6 102 7 207 17 233 22 26 5 74 9 107 9 32
0 71 5 85 10 15 6 73 15 129 21 55 6 106 15 111 19 13 9 81 23 121 24 34 1
112 62 98 76 -5 5 -54 10 -109 12 -84 3 -109 8 -160 32 -56 27 -173 50 -201
39 -23 -8 -55 34 -48 65 5 24 93 287 122 367 6 17 24 73 41 125 64 203 87 305
73 326 -15 24 -118 23 -219 -2 -54 -13 -122 -24 -150 -24 -69 0 -89 19 -98 94
-9 70 11 539 25 586 5 19 10 54 10 77 0 38 -3 43 -23 43 -18 0 -28 -10 -42
-41z m-248 -571 c27 -25 29 -41 8 -58 -12 -10 -19 -10 -27 -2 -19 19 -59 14
-94 -13 -43 -33 -69 -32 -111 5 -43 38 -68 38 -88 0 -9 -17 -27 -33 -42 -36
-23 -6 -32 -1 -59 29 -42 49 -78 50 -98 3 -17 -41 -34 -53 -51 -35 -26 27 -28
66 -6 88 19 19 34 21 139 22 64 1 167 5 227 9 61 3 125 7 144 8 24 1 42 -5 58
-20z m-675 -15 c23 -21 25 -91 2 -100 -8 -3 -20 -1 -27 6 -21 21 -62 12 -85
-19 -19 -25 -30 -30 -64 -30 -35 0 -49 -6 -79 -36 -35 -35 -39 -36 -73 -24
-35 11 -76 1 -76 -20 0 -4 -12 -22 -26 -39 -23 -27 -32 -31 -78 -31 -45 0 -56
-4 -82 -31 -24 -25 -34 -29 -59 -24 -75 16 -89 12 -107 -27 -26 -55 -47 -62
-97 -35 -24 12 -40 28 -39 37 2 8 45 30 98 51 52 20 136 54 185 76 50 23 115
49 145 58 62 20 65 21 249 104 73 34 145 70 160 81 32 24 30 24 53 3z m-718
-45 c24 -34 21 -133 -4 -158 -25 -25 -32 -25 -55 0 -14 15 -17 32 -13 84 5 90
38 123 72 74z m1505 -102 c17 -20 -13 -66 -44 -66 -12 0 -36 -5 -54 -11 -42
-15 -79 -4 -93 27 -16 35 0 47 70 55 95 10 109 10 121 -5z m-275 -19 c16 -12
17 -16 3 -48 -18 -44 -38 -60 -84 -66 -32 -4 -42 0 -62 21 -35 38 -81 30 -81
-14 0 -20 -37 -55 -66 -64 -25 -8 -51 17 -56 54 -2 20 -9 26 -35 28 -31 3 -33
1 -45 -43 -15 -57 -51 -94 -76 -79 -12 8 -18 28 -20 71 -3 56 -1 62 27 86 33
27 118 41 346 56 66 5 123 9 126 10 3 0 13 -5 23 -12z m819 -44 c17 -20 14
-39 -38 -209 -30 -99 -43 -110 -135 -119 -36 -3 -92 -10 -125 -16 -33 -5 -118
-18 -190 -29 -71 -11 -150 -24 -175 -29 -25 -6 -99 -20 -165 -31 -66 -12 -165
-32 -220 -45 -55 -13 -152 -33 -215 -45 -219 -40 -356 -72 -495 -115 -77 -24
-214 -61 -305 -84 -91 -23 -205 -54 -255 -71 -49 -16 -120 -37 -158 -45 -37
-9 -97 -26 -135 -39 -37 -13 -155 -52 -262 -86 -201 -65 -472 -162 -519 -186
-37 -20 -54 -17 -80 10 -44 47 -39 51 209 156 25 11 108 47 185 80 77 34 237
97 355 141 118 44 230 86 249 95 74 33 476 171 671 230 47 14 164 52 260 84
96 32 211 69 255 81 44 12 132 37 195 56 150 45 439 119 515 132 33 6 102 19
152 30 51 11 119 22 150 26 32 3 87 12 123 20 59 13 95 20 126 24 6 0 18 -7
27 -16z m-1425 -35 c7 -7 12 -41 12 -83 0 -61 -3 -74 -22 -92 -42 -38 -63 -38
-94 2 -37 48 -68 45 -72 -7 -3 -40 -48 -88 -81 -88 -19 0 -44 24 -54 53 -17
46 -67 25 -67 -28 0 -25 -8 -40 -31 -59 -41 -35 -62 -33 -97 12 -26 31 -34 35
-49 26 -10 -6 -19 -20 -21 -30 -8 -52 -15 -64 -46 -83 -45 -28 -63 -26 -81 9
-12 23 -22 30 -44 30 -30 0 -41 -14 -41 -54 0 -12 -11 -33 -24 -45 -19 -18
-28 -21 -44 -12 -11 6 -22 17 -26 26 -7 20 -62 20 -70 -1 -3 -9 -6 -23 -6 -33
0 -10 -11 -28 -25 -41 l-25 -24 -31 23 c-41 30 -83 25 -87 -10 -2 -15 -14 -37
-27 -49 l-23 -22 -30 22 c-38 28 -51 23 -77 -26 -24 -46 -48 -54 -80 -24 -36
34 -68 24 -76 -23 -3 -21 -13 -46 -22 -55 -15 -14 -18 -14 -37 3 -38 35 -18
92 42 115 18 6 92 36 163 66 173 71 361 144 372 144 4 0 40 15 78 35 39 19
115 52 170 74 211 84 304 123 411 172 89 42 210 88 230 89 11 0 25 -5 32 -12z
m-823 -148 c8 -13 -19 -72 -43 -94 -17 -15 -31 -18 -67 -13 -43 6 -48 5 -91
-35 -40 -37 -47 -40 -70 -29 -41 18 -73 14 -83 -11 -5 -13 -21 -34 -35 -48
-21 -19 -31 -22 -43 -14 -64 40 -23 84 132 142 61 23 148 57 195 77 94 38 96
39 105 25z m2275 -705 c135 -46 121 -64 -60 -77 -115 -8 -134 -7 -149 6 -10 9
-23 16 -29 16 -19 0 -14 26 11 54 19 23 30 26 88 26 44 0 90 -8 139 -25z"/>
<path d="M19369 17834 c-9 -12 -14 -62 -17 -174 -4 -149 -6 -160 -27 -180
l-22 -21 -296 12 c-355 15 -347 17 -347 -70 0 -35 5 -63 13 -68 6 -6 111 -13
232 -17 121 -3 294 -9 385 -12 131 -5 169 -3 183 7 15 12 18 42 24 261 5 194
3 250 -7 263 -17 21 -103 20 -121 -1z"/>
<path d="M750 17766 c-14 -14 -13 -101 3 -114 8 -7 102 -12 255 -14 219 -3
243 -5 259 -21 17 -18 17 -19 -6 -35 -13 -10 -130 -73 -260 -141 -130 -68
-244 -130 -253 -139 -22 -18 -25 -123 -5 -140 7 -6 157 -13 387 -17 426 -9
403 -13 398 72 l-3 48 -242 5 c-217 4 -244 7 -260 23 -17 18 -17 19 2 33 21
16 138 79 350 189 72 37 138 75 148 83 15 13 17 29 15 86 l-3 71 -90 6 c-171
13 -683 17 -695 5z"/>
<path d="M19420 17059 c-27 -11 -258 -73 -350 -94 -100 -23 -395 -107 -406
-117 -7 -5 -15 -45 -19 -89 -9 -96 -5 -102 82 -135 32 -12 96 -38 143 -59 47
-20 130 -54 185 -75 55 -21 156 -62 225 -90 68 -28 133 -50 144 -48 22 3 33
33 35 91 1 56 -11 72 -79 97 -84 31 -89 42 -81 171 8 125 20 150 82 168 86 25
93 31 103 95 13 82 -6 108 -64 85z m-280 -269 c28 -28 27 -91 -2 -124 l-23
-26 -95 36 c-52 19 -101 37 -107 39 -15 5 -17 31 -4 40 9 5 187 53 204 54 4 1
16 -8 27 -19z"/>
<path d="M737 16932 c-10 -10 -17 -32 -17 -48 0 -52 21 -76 83 -97 85 -28 97
-52 97 -193 0 -107 -1 -111 -27 -136 -16 -14 -51 -33 -80 -42 -58 -19 -63 -27
-63 -102 0 -40 4 -56 15 -60 9 -4 109 25 223 64 114 39 281 97 372 127 91 31
173 64 183 74 15 15 17 28 11 88 -4 39 -10 76 -13 82 -6 9 -738 261 -760 261
-4 0 -15 -8 -24 -18z m438 -276 c144 -44 146 -57 15 -97 -106 -32 -131 -34
-148 -17 -18 18 -15 108 5 130 9 10 17 18 17 18 1 0 51 -16 111 -34z"/>
<path d="M1430 16235 c-8 -9 -11 -45 -9 -105 4 -135 27 -125 -339 -138 -202
-7 -309 -15 -318 -23 -20 -16 -19 -103 1 -119 16 -13 170 -11 511 7 153 8 158
5 168 -117 4 -46 12 -90 18 -97 15 -18 83 -16 98 2 10 12 11 48 6 153 -3 75
-9 202 -12 282 -4 80 -11 151 -17 158 -13 17 -92 15 -107 -3z"/>
<path d="M18606 16159 c-3 -17 -6 -52 -6 -77 0 -45 1 -47 135 -182 181 -182
180 -196 -10 -179 -101 9 -120 8 -133 -5 -21 -20 -28 -108 -10 -123 8 -7 143
-20 348 -32 184 -12 355 -24 380 -27 56 -7 65 2 73 73 4 37 2 55 -7 63 -8 6
-67 13 -132 17 l-118 6 -41 38 c-48 46 -45 56 36 110 82 54 225 139 236 139 5
0 19 10 31 23 18 19 22 35 22 95 0 52 -4 74 -14 78 -14 5 -40 -10 -304 -169
-78 -48 -153 -87 -166 -87 -18 0 -52 30 -131 114 -59 62 -113 123 -121 135 -8
11 -26 21 -38 21 -18 0 -25 -7 -30 -31z"/>
<path d="M1245 15460 c-398 -35 -450 -41 -464 -55 -16 -16 -7 -97 13 -114 9
-8 65 -7 197 4 450 36 565 46 577 50 16 6 16 107 0 123 -15 15 -64 14 -323 -8z"/>
<path d="M18553 15319 c-5 -8 -13 -35 -16 -61 -6 -42 -4 -49 16 -61 12 -8 72
-20 132 -26 154 -17 153 -15 137 -173 -11 -112 -14 -125 -38 -145 -29 -27 -37
-27 -169 -8 -85 12 -102 12 -114 0 -20 -19 -27 -108 -10 -122 8 -6 61 -16 119
-22 58 -7 226 -28 373 -47 199 -26 272 -32 282 -24 20 17 30 109 14 125 -8 7
-76 20 -159 30 -80 9 -153 21 -162 26 -23 12 -32 51 -24 92 4 18 11 67 15 111
7 58 14 83 29 99 21 20 21 20 159 3 76 -10 152 -16 168 -14 29 3 30 5 33 62 2
32 -1 63 -6 68 -5 5 -106 20 -223 34 -118 13 -261 30 -319 38 -191 27 -225 29
-237 15z"/>
<path d="M1095 15111 c-179 -51 -267 -152 -281 -325 -8 -88 10 -156 61 -237
77 -124 249 -180 444 -145 152 27 240 86 295 198 32 64 36 79 36 152 0 98 -12
144 -53 214 -38 63 -118 123 -196 146 -73 21 -227 20 -306 -3z m270 -154 c55
-16 131 -93 141 -141 19 -102 -21 -175 -122 -226 -64 -33 -73 -35 -168 -35
-84 0 -108 4 -141 22 -51 27 -90 68 -109 115 -20 47 -20 79 0 126 53 127 228
188 399 139z"/>
<path d="M18440 14505 c-7 -8 -19 -76 -27 -158 -45 -458 -43 -420 -21 -439 24
-21 81 -24 97 -5 6 8 16 49 22 93 12 91 21 112 52 119 20 5 361 -23 537 -44
47 -6 79 -6 87 0 17 15 27 107 13 124 -14 17 -26 18 -320 45 -272 25 -293 28
-317 45 -16 12 -18 28 -18 122 l0 108 -46 3 c-32 2 -50 -2 -59 -13z"/>
<path d="M1410 14225 c-80 -7 -228 -18 -330 -24 -102 -7 -190 -17 -197 -23
-19 -15 -16 -93 3 -109 13 -10 55 -9 237 5 122 9 235 18 251 19 18 1 32 -5 40
-16 14 -24 16 -23 -269 -207 -133 -87 -233 -158 -237 -170 -11 -29 2 -107 19
-122 14 -12 31 -11 623 33 74 5 141 12 148 14 17 6 16 99 -2 114 -13 11 -172
6 -416 -15 -62 -5 -78 -4 -89 9 -18 23 -9 32 88 94 47 31 131 86 186 122 55
37 121 79 147 94 61 35 71 55 63 120 -12 87 -3 84 -265 62z"/>
<path d="M19015 13754 c-33 -8 -91 -21 -130 -29 -38 -9 -97 -22 -130 -30 -33
-7 -118 -25 -190 -40 -186 -39 -233 -53 -239 -73 -14 -50 -16 -138 -4 -154 7
-9 119 -66 248 -126 129 -60 290 -136 358 -168 148 -69 155 -68 160 25 l3 62
-54 24 c-29 14 -63 35 -76 49 -22 23 -22 24 -8 145 16 145 24 157 112 171 32
5 64 15 71 22 7 7 14 40 16 73 l3 60 -40 2 c-22 1 -67 -5 -100 -13z m-210
-224 c22 -24 17 -113 -8 -137 -19 -19 -49 -11 -157 41 -47 22 -65 36 -65 51 0
21 10 25 130 48 39 8 73 15 76 16 3 0 14 -8 24 -19z"/>
<path d="M922 13307 c-14 -17 -2 -98 18 -122 8 -9 29 -15 57 -15 57 0 111 -23
122 -52 5 -13 18 -72 30 -133 l20 -109 -27 -29 c-15 -16 -44 -37 -64 -48 -44
-22 -55 -52 -42 -111 11 -51 35 -69 66 -49 13 8 51 31 85 50 374 217 530 311
560 336 l36 31 -13 72 c-7 40 -18 76 -24 81 -6 5 -101 20 -211 35 -110 14
-229 30 -265 35 -68 10 -186 26 -281 36 -42 5 -58 3 -67 -8z m497 -197 c70 -9
101 -22 101 -41 0 -4 -44 -31 -97 -58 -92 -47 -99 -49 -114 -33 -9 9 -21 37
-28 60 -11 39 -10 46 5 63 19 21 30 22 133 9z"/>
<path d="M18360 12938 c-81 -23 -129 -86 -149 -193 -40 -222 -58 -370 -45
-378 11 -6 332 -62 414 -72 30 -4 109 -15 174 -26 66 -11 137 -19 160 -17 l41
3 8 54 c7 41 6 56 -5 66 -7 7 -70 20 -140 30 -166 23 -166 23 -147 146 14 97
32 138 74 165 23 15 34 15 95 5 94 -15 165 -14 179 3 6 7 12 38 14 67 l2 54
-65 9 c-36 5 -108 10 -160 10 -86 1 -98 -1 -127 -23 l-32 -24 -53 54 c-72 74
-143 94 -238 67z m162 -184 c24 -24 28 -35 27 -83 -1 -75 -21 -167 -41 -187
-14 -15 -26 -15 -88 -6 -98 14 -104 21 -96 102 11 108 25 147 64 181 29 26 41
30 70 25 19 -3 48 -18 64 -32z"/>
<path d="M1790 12579 c-19 -5 -100 -22 -180 -38 -80 -17 -210 -43 -290 -59
-80 -17 -161 -33 -181 -36 -66 -11 -66 -14 -20 -245 62 -307 58 -298 127 -285
59 11 60 17 24 205 -30 157 -31 172 -17 187 14 14 321 83 547 123 36 6 71 16
78 22 17 13 5 108 -16 125 -18 14 -23 14 -72 1z"/>
<path d="M18111 12126 c-8 -9 -16 -39 -19 -65 -4 -41 -1 -51 14 -59 19 -10
114 -29 359 -72 224 -40 266 -66 272 -167 5 -69 -16 -116 -67 -150 -46 -32
-90 -30 -330 16 -272 52 -303 56 -317 40 -18 -23 -25 -102 -11 -120 9 -11 88
-30 248 -60 266 -49 385 -59 442 -35 101 43 160 146 166 289 9 206 -54 270
-313 321 -395 77 -428 82 -444 62z"/>
<path d="M1945 11555 c-163 -46 -522 -143 -572 -155 -67 -15 -77 -28 -68 -85
9 -66 30 -73 131 -46 169 46 375 102 509 139 l140 38 3 43 c4 48 -18 92 -46
90 -9 -1 -53 -12 -97 -24z"/>
<path d="M18033 11271 c-17 -5 -52 -20 -77 -35 -70 -41 -108 -104 -132 -221
-28 -133 6 -222 106 -283 51 -31 60 -33 131 -30 111 4 130 21 240 208 90 154
143 184 208 119 51 -51 53 -107 5 -206 -27 -56 -73 -93 -117 -93 -33 0 -55
-22 -63 -64 -11 -63 -5 -71 59 -74 128 -7 226 89 271 265 20 77 20 117 -1 179
-24 71 -57 109 -126 144 -73 36 -139 40 -197 10 -46 -24 -67 -49 -158 -200
-100 -166 -140 -187 -209 -114 -38 39 -42 76 -18 145 21 60 67 105 121 118 38
10 45 16 55 49 6 21 9 49 7 62 -2 21 -9 25 -38 27 -19 1 -49 -2 -67 -6z"/>
<path d="M2109 11236 c-2 -2 -76 -23 -164 -46 -88 -23 -200 -53 -250 -66 -49
-13 -132 -35 -183 -48 -126 -32 -131 -38 -111 -108 9 -34 14 -38 42 -38 18 0
135 28 260 62 212 57 229 60 245 45 15 -16 6 -27 -133 -159 -293 -278 -295
-280 -295 -322 0 -38 21 -99 38 -110 5 -3 102 19 213 50 242 67 350 95 444
119 39 10 75 19 82 21 40 10 10 130 -32 128 -11 -1 -83 -18 -160 -39 -318 -85
-325 -86 -325 -51 0 8 90 101 200 207 110 106 203 203 206 216 9 34 -5 110
-22 128 -14 14 -45 20 -55 11z"/>
<path d="M2147 10386 c-71 -30 -83 -39 -109 -90 -20 -38 -20 -50 -12 -176 14
-240 14 -247 -24 -281 -18 -16 -43 -29 -56 -29 -66 0 -151 118 -151 209 0 36
7 56 34 93 28 40 32 52 27 82 -8 40 -29 66 -54 66 -28 0 -89 -56 -111 -103
-26 -53 -28 -154 -6 -231 34 -115 116 -211 206 -238 55 -16 157 1 209 36 79
52 94 132 64 349 -14 106 -14 117 1 146 9 18 31 39 50 48 33 16 37 16 70 0 41
-20 80 -76 94 -137 10 -41 8 -50 -19 -104 -33 -64 -36 -91 -18 -131 8 -18 19
-25 38 -25 39 0 75 32 105 95 24 47 27 64 23 127 -6 126 -81 254 -173 297 -58
27 -116 26 -188 -3z"/>
<path d="M2557 9768 c-40 -14 -41 -43 -7 -137 l31 -84 -22 -23 c-12 -13 -32
-27 -43 -30 -12 -4 -70 -26 -131 -49 -60 -23 -173 -66 -250 -96 -77 -29 -146
-57 -152 -62 -28 -21 -4 -114 31 -123 13 -3 55 8 102 26 43 18 138 54 209 80
72 26 166 62 209 80 l79 31 26 -25 c14 -14 37 -57 50 -95 26 -75 41 -88 89
-76 36 9 52 23 52 48 0 18 -40 128 -157 432 -48 123 -52 127 -116 103z"/>
<path d="M17974 9455 c-23 -56 -19 -94 14 -106 60 -24 95 -22 121 5 30 32 41
32 71 1 25 -27 45 -32 55 -14 23 37 -41 95 -143 130 -81 28 -100 26 -118 -16z"/>
<path d="M17172 9178 c-18 -23 -42 -97 -42 -134 0 -31 11 -42 153 -155 83 -67
168 -136 187 -153 19 -18 45 -39 56 -47 12 -8 68 -51 124 -96 57 -46 108 -83
114 -83 32 1 56 47 56 106 0 29 -7 39 -47 68 -78 56 -78 58 -32 188 51 144 66
158 158 158 52 0 72 4 84 18 22 24 44 109 32 121 -6 5 -194 13 -420 17 -355 6
-412 5 -423 -8z m442 -168 c16 -16 17 -22 6 -56 -16 -51 -37 -84 -54 -84 -30
0 -192 142 -182 158 12 20 206 4 230 -18z"/>
<path d="M2760 9017 c-159 -78 -445 -214 -508 -242 -74 -33 -86 -58 -56 -114
24 -46 59 -51 117 -18 23 14 103 53 177 87 309 142 435 204 442 214 12 18 9
55 -7 86 -22 42 -60 39 -165 -13z"/>
<path d="M2942 8784 c-30 -21 -28 -38 13 -127 40 -86 42 -98 18 -119 -10 -9
-141 -73 -290 -143 -266 -124 -273 -129 -273 -157 0 -38 25 -85 50 -93 13 -4
97 31 268 113 316 152 315 151 343 126 12 -10 36 -49 55 -86 38 -76 66 -92
108 -64 45 29 42 47 -32 204 -38 81 -89 190 -112 242 -24 52 -48 101 -53 108
-13 17 -68 15 -95 -4z"/>
<path d="M16936 8561 c-14 -32 -26 -64 -26 -71 0 -6 34 -91 75 -187 42 -97 75
-183 73 -192 -6 -29 -45 -23 -142 23 -116 55 -149 58 -171 16 -16 -31 -19 -68
-7 -86 4 -6 104 -56 222 -111 401 -188 463 -214 485 -209 28 7 61 86 47 113
-6 10 -51 36 -101 57 -129 55 -196 135 -146 176 8 6 99 25 202 42 121 19 194
36 206 46 36 32 70 133 49 146 -8 5 -342 -48 -467 -73 -74 -15 -89 0 -148 150
-27 68 -56 145 -65 172 -12 37 -21 47 -38 47 -16 0 -27 -13 -48 -59z"/>
<path d="M3290 8083 c-8 -3 -69 -36 -135 -73 -66 -37 -158 -86 -204 -109 -195
-98 -243 -150 -249 -267 -9 -157 73 -298 207 -356 56 -24 121 -21 201 11 86
33 482 247 492 266 20 34 -25 115 -63 115 -16 0 -120 -52 -444 -225 -59 -31
-77 -36 -115 -32 -36 4 -52 13 -86 50 -46 48 -61 93 -50 151 9 49 71 99 208
170 338 174 340 176 324 242 -12 47 -49 71 -86 57z"/>
<path d="M16500 7638 c-11 -18 -27 -52 -36 -74 -13 -36 -14 -45 -2 -65 7 -13
138 -145 291 -293 304 -294 305 -295 340 -221 26 54 21 70 -39 136 -64 69 -64
59 7 201 59 118 75 130 146 116 73 -15 99 -6 123 43 29 56 24 81 -20 90 -19 4
-150 21 -290 38 -140 17 -304 38 -365 46 -142 19 -132 20 -155 -17z m329 -157
c129 -21 136 -28 98 -106 -18 -37 -33 -55 -46 -55 -10 0 -56 34 -102 77 -46
42 -86 77 -88 79 -7 5 11 24 22 23 7 0 59 -8 116 -18z"/>
<path d="M3655 7395 c-14 -13 -25 -30 -25 -38 0 -8 23 -47 50 -88 28 -41 50
-81 50 -90 0 -24 -27 -44 -287 -218 -224 -148 -243 -163 -243 -190 0 -32 48
-91 74 -91 14 0 193 117 456 299 42 29 83 51 95 49 12 -2 39 -31 68 -73 54
-80 84 -98 125 -73 50 31 42 59 -58 208 -51 74 -121 179 -157 233 -58 85 -70
97 -95 97 -17 0 -39 -10 -53 -25z"/>
<path d="M16257 7198 c-13 -24 -41 -72 -62 -108 -106 -184 -185 -333 -185
-350 0 -37 56 -69 98 -56 10 4 28 25 38 48 26 58 71 118 89 118 8 0 72 -33
142 -73 324 -186 401 -227 426 -227 46 0 88 91 55 118 -12 9 -224 130 -413
235 -102 57 -135 83 -135 108 0 9 18 48 40 85 22 38 40 79 40 91 0 28 -36 53
-76 53 -27 0 -36 -6 -57 -42z"/>
<path d="M3835 6574 c-159 -107 -298 -201 -307 -209 -10 -8 -18 -25 -18 -38 0
-13 48 -94 107 -183 158 -236 180 -264 207 -264 32 0 76 37 76 63 0 12 -48 91
-106 175 -77 112 -103 158 -99 173 9 26 149 121 169 113 15 -6 59 -62 160
-206 51 -74 73 -83 121 -52 42 27 32 59 -60 193 -47 69 -85 132 -85 141 0 17
38 57 82 85 49 31 66 16 172 -140 87 -128 101 -145 126 -145 32 0 80 35 80 58
0 14 -229 358 -275 415 -8 9 -25 17 -37 16 -13 0 -153 -88 -313 -195z"/>
<path d="M15855 6472 c-24 -16 -75 -97 -75 -118 0 -11 27 -57 60 -100 33 -43
79 -106 102 -139 71 -101 302 -410 313 -417 22 -16 45 -6 70 29 35 52 32 80
-15 143 -22 29 -40 59 -40 66 0 14 103 169 138 207 30 31 50 33 115 11 62 -21
91 -12 123 36 46 68 40 72 -226 146 -25 7 -148 42 -274 78 -223 64 -270 74
-291 58z m295 -219 c114 -38 119 -47 69 -119 -20 -29 -37 -44 -48 -42 -10 2
-48 41 -85 86 -55 69 -65 86 -55 98 7 8 19 12 28 9 9 -4 50 -18 91 -32z"/>
<path d="M15475 5945 c-44 -43 -35 -61 82 -170 252 -234 260 -243 242 -260
-15 -15 -31 -12 -195 30 -98 26 -207 53 -241 60 -34 8 -79 18 -100 24 -52 15
-48 16 -98 -30 -76 -70 -82 -62 225 -342 150 -137 283 -250 297 -253 21 -6 32
-1 55 25 30 34 35 58 16 83 -7 8 -67 63 -133 121 -215 189 -239 213 -231 225
12 21 56 14 304 -48 332 -83 319 -82 365 -31 39 43 45 67 25 92 -7 8 -65 62
-128 120 -63 57 -181 166 -263 242 -160 148 -178 157 -222 112z"/>
<path d="M4665 5747 c-120 -45 -250 -160 -301 -264 -24 -48 -30 -74 -33 -146
-3 -83 -1 -92 29 -154 42 -84 99 -141 183 -183 62 -30 71 -32 154 -29 79 4 98
8 165 41 108 54 207 149 254 243 34 69 36 77 33 157 -3 70 -9 94 -36 149 -84
170 -278 251 -448 186z m244 -160 c52 -34 96 -109 96 -162 -1 -108 -134 -253
-276 -300 -46 -15 -53 -15 -101 1 -64 21 -132 86 -149 143 -16 55 -2 102 56
179 51 67 90 100 173 144 72 38 139 36 201 -5z"/>
<path d="M14901 5273 c-26 -9 -66 -37 -95 -67 -84 -84 -246 -266 -246 -275 0
-25 25 -53 177 -193 91 -84 213 -197 271 -250 118 -110 139 -118 185 -70 47
49 38 69 -73 172 -67 62 -100 99 -100 114 0 12 30 52 73 98 102 109 137 113
229 30 112 -101 141 -111 189 -63 36 36 38 73 4 95 -13 9 -51 40 -85 70 -70
62 -114 86 -162 86 -45 0 -64 23 -71 84 -14 131 -165 218 -296 169z m125 -175
c49 -43 59 -73 38 -107 -30 -45 -146 -171 -159 -171 -16 0 -135 109 -135 124
0 6 37 51 83 99 96 100 115 106 173 55z"/>
<path d="M5102 4937 c-285 -285 -289 -291 -237 -342 45 -46 70 -36 179 75 62
63 106 100 119 100 13 0 60 -38 122 -100 110 -108 129 -117 170 -75 43 42 34
62 -75 170 -69 68 -100 107 -100 123 0 28 74 110 107 118 21 6 42 -10 147
-115 76 -74 131 -121 143 -121 33 0 73 38 73 68 0 38 -323 362 -360 362 -19 0
-84 -59 -288 -263z"/>
<path d="M14204 4611 c-70 -65 -83 -15 156 -611 45 -113 87 -208 93 -212 22
-14 42 -8 75 23 38 36 42 71 12 129 -35 69 -30 79 81 174 59 51 109 86 122 86
12 0 42 -14 67 -30 55 -37 91 -38 136 -4 49 38 48 77 -3 103 -21 10 -87 49
-148 86 -545 333 -520 322 -591 256z m276 -251 c49 -33 92 -65 96 -72 8 -13
-79 -98 -100 -98 -20 0 -39 28 -74 105 -42 95 -49 125 -28 125 9 0 57 -27 106
-60z"/>
<path d="M6236 4331 c-11 -12 -16 -31 -14 -52 2 -27 15 -43 63 -81 33 -27 64
-57 69 -68 10 -23 8 -27 -184 -260 -233 -284 -230 -277 -161 -325 51 -34 67
-29 123 43 25 31 89 111 143 177 53 66 122 150 152 188 29 37 59 67 65 67 13
0 65 -38 121 -87 20 -18 45 -33 55 -33 29 0 62 42 62 78 0 26 -8 38 -44 64
-75 57 -289 229 -333 270 -48 43 -89 50 -117 19z"/>
<path d="M13746 4210 l-46 -49 0 -199 c0 -196 -4 -222 -34 -222 -6 0 -49 45
-95 100 -75 89 -88 100 -117 100 -24 0 -39 -8 -58 -31 -14 -17 -26 -37 -26
-45 0 -7 26 -44 57 -81 32 -38 109 -129 172 -203 266 -315 252 -300 286 -300
37 0 85 39 85 69 0 19 -76 119 -114 150 -46 38 -62 133 -27 165 20 18 36 14
287 -60 116 -34 136 -32 190 18 29 27 44 48 42 61 -3 21 -34 31 -353 108 -92
23 -137 39 -155 55 l-24 23 11 188 c7 102 10 190 7 195 -12 20 -45 4 -88 -42z"/>
<path d="M6852 3853 c-11 -10 -71 -81 -132 -158 -62 -77 -156 -194 -209 -259
-53 -66 -101 -129 -108 -140 -21 -35 -14 -60 25 -92 278 -229 364 -294 386
-294 32 0 66 36 66 70 0 25 -53 75 -242 225 -32 26 -58 54 -58 64 0 22 116
161 134 161 8 0 36 -18 62 -40 162 -133 200 -160 225 -160 30 0 69 40 69 70 0
18 -55 69 -187 174 -54 42 -73 63 -73 80 0 27 84 126 106 126 8 0 45 -25 82
-55 37 -30 100 -82 141 -115 40 -33 82 -60 92 -60 40 0 75 72 51 106 -4 5 -71
62 -149 125 -267 216 -245 202 -281 172z"/>
<path d="M12778 3465 c-47 -32 -52 -49 -34 -131 44 -213 49 -244 36 -259 -7
-8 -18 -15 -25 -15 -7 0 -70 36 -140 80 -142 89 -171 96 -230 58 -25 -17 -35
-30 -35 -50 0 -24 16 -35 183 -123 271 -145 274 -147 358 -269 67 -97 75 -106
105 -106 43 0 84 34 84 70 0 16 -5 32 -10 35 -25 15 -131 188 -140 227 -5 24
-16 102 -24 173 -43 372 -36 335 -65 335 -15 0 -43 -11 -63 -25z"/>
<path d="M7462 3280 c-87 -23 -108 -37 -193 -127 -188 -200 -206 -438 -43
-582 77 -68 125 -86 229 -86 78 0 97 4 147 28 80 39 88 77 23 117 -40 24 -49
25 -100 0 -22 -11 -56 -19 -75 -20 -49 0 -117 37 -154 83 -28 35 -31 46 -31
106 0 55 6 78 32 132 57 115 156 208 243 228 58 13 116 -8 171 -65 43 -43 44
-46 47 -119 4 -71 6 -76 39 -105 69 -61 106 -23 101 105 -5 133 -66 223 -189
284 -85 41 -153 47 -247 21z"/>
<path d="M11944 2916 c-119 -57 -170 -113 -205 -229 -23 -76 -24 -111 -3 -191
39 -152 139 -282 261 -343 68 -34 84 -37 152 -37 142 0 264 76 306 189 25 68
40 83 65 67 32 -19 78 -15 90 9 7 11 9 28 5 37 -3 9 -49 81 -102 160 -118 172
-113 171 -247 80 -50 -34 -94 -66 -98 -72 -13 -20 -8 -53 10 -69 27 -25 59
-21 114 15 l49 31 21 -20 c31 -32 35 -102 8 -157 -48 -99 -150 -150 -252 -125
-44 10 -64 23 -119 78 -86 86 -129 173 -129 260 0 79 16 116 72 167 71 66 112
74 216 42 40 -11 47 -11 80 9 28 16 38 28 40 52 3 29 -1 33 -50 56 -42 20 -69
25 -133 25 -71 0 -89 -4 -151 -34z"/>
<path d="M8117 2868 c-25 -35 -190 -267 -325 -459 -45 -64 -82 -126 -82 -137
0 -25 54 -72 83 -72 32 0 36 5 111 115 76 110 114 155 131 155 14 0 179 -112
218 -148 15 -14 27 -30 27 -35 0 -5 -35 -58 -77 -119 -107 -150 -107 -151
-100 -179 8 -32 65 -64 98 -56 16 5 45 39 86 99 59 89 252 363 321 457 44 60
44 102 -1 125 -57 31 -75 21 -153 -89 -39 -55 -78 -104 -87 -109 -11 -7 -25
-1 -53 21 -22 16 -74 53 -116 81 -42 28 -79 61 -83 72 -7 21 1 34 87 149 55
73 62 111 26 142 -37 30 -83 25 -111 -13z"/>
<path d="M11151 2487 c-73 -30 -163 -114 -198 -185 -38 -78 -40 -205 -4 -299
33 -87 108 -197 172 -249 74 -61 129 -77 239 -72 73 3 98 9 153 36 74 37 142
105 178 179 31 63 38 180 14 248 -51 151 -157 288 -260 337 -53 24 -71 28
-150 27 -69 0 -103 -5 -144 -22z m183 -129 c54 -16 154 -115 189 -188 35 -72
47 -140 35 -190 -20 -79 -120 -160 -198 -160 -106 0 -240 144 -281 302 -10 38
-10 54 1 87 26 81 120 160 189 161 13 0 42 -5 65 -12z"/>
<path d="M8818 2443 c-16 -4 -48 -59 -168 -288 -29 -55 -86 -162 -127 -238
-82 -153 -86 -175 -32 -203 58 -30 66 -21 184 202 127 241 136 254 159 235 14
-12 16 -49 16 -310 0 -223 3 -301 13 -312 22 -28 89 -61 112 -55 15 4 40 39
82 118 33 62 109 203 168 312 119 221 132 264 92 291 -14 9 -38 15 -54 13 -25
-3 -38 -22 -135 -203 -120 -222 -129 -235 -152 -215 -14 11 -16 52 -16 300 0
261 -2 288 -17 302 -24 19 -92 58 -101 57 -4 -1 -15 -3 -24 -6z"/>
<path d="M10281 2065 c-31 -14 -33 -18 -28 -53 4 -32 227 -678 243 -703 11
-18 53 -7 267 68 149 52 221 82 228 95 16 29 -7 87 -36 94 -16 4 -79 -13 -179
-48 -123 -42 -159 -51 -173 -42 -17 10 -59 118 -173 448 -27 76 -55 143 -62
147 -19 13 -48 10 -87 -6z"/>
<path d="M9635 2006 c-59 -20 -79 -34 -125 -83 -75 -79 -101 -155 -108 -309
-5 -131 10 -200 64 -281 134 -205 476 -199 599 12 38 63 65 185 65 286 0 200
-85 328 -252 381 -81 24 -158 23 -243 -6z m182 -131 c60 -18 123 -80 143 -141
19 -55 17 -169 -4 -237 -29 -99 -109 -167 -194 -167 -56 0 -85 13 -136 60 -36
33 -47 53 -61 105 -48 177 46 367 196 394 3 1 28 -6 56 -14z"/>
<path d="M6598 6164 c-97 -15 -155 -29 -178 -44 -13 -8 -15 -82 -16 -560 l0
-551 32 -19 c27 -17 49 -20 152 -20 96 0 124 3 136 16 14 14 16 73 16 509 0
271 2 529 6 574 10 119 9 120 -148 95z m40 -176 c16 -16 17 -909 2 -939 -9
-16 -22 -19 -74 -19 -53 0 -66 4 -85 24 -22 23 -22 25 -24 437 -2 474 -6 451
85 487 62 24 80 26 96 10z"/>
<path d="M6980 6155 c-18 -22 -17 -1163 2 -1180 8 -9 67 -15 169 -20 186 -8
189 -6 171 78 -7 29 -10 93 -7 142 2 50 7 243 10 430 3 187 8 364 12 392 4 35
2 58 -6 67 -14 17 -162 68 -264 91 -82 18 -72 18 -87 0z m197 -181 c49 -10 50
-18 45 -483 -5 -499 1 -471 -96 -471 -43 0 -58 5 -80 25 l-27 25 2 438 c2 427
2 438 22 460 21 23 48 24 134 6z"/>
<path d="M9515 6054 c-38 -7 -99 -23 -135 -36 l-65 -23 -2 -495 c-3 -480 1
-569 28 -586 5 -3 74 -7 153 -9 111 -3 147 0 156 10 7 9 9 104 6 311 -3 165
-2 416 2 559 5 152 4 265 -1 273 -11 15 -48 14 -142 -4z m34 -168 c15 -13 16
-62 14 -442 -3 -490 2 -464 -88 -464 -37 0 -60 6 -76 19 l-24 19 -5 294 c-3
161 -3 348 0 415 6 141 12 153 87 164 74 10 75 10 92 -5z"/>
<path d="M9865 6060 c-4 -6 -8 -265 -10 -575 -2 -499 -1 -566 13 -577 16 -14
244 -25 285 -14 l22 5 0 468 c0 257 2 506 5 553 5 82 4 85 -20 96 -55 27 -285
61 -295 44z m184 -176 l31 -26 0 -429 c0 -416 -1 -430 -20 -449 -28 -28 -96
-27 -127 2 l-23 21 0 435 c0 391 2 437 17 454 25 27 85 24 122 -8z"/>
<path d="M12480 5996 c-19 -7 -61 -16 -93 -20 -37 -5 -67 -15 -83 -29 l-24
-22 -1 -529 c-1 -432 2 -530 13 -537 7 -5 38 -9 69 -9 31 0 96 -3 146 -6 142
-10 129 -63 137 542 4 280 8 534 9 564 l2 55 -70 2 c-38 1 -86 -4 -105 -11z
m42 -183 c17 -15 18 -42 18 -443 l0 -427 -23 -21 c-21 -20 -29 -21 -91 -13
-49 5 -73 13 -82 26 -11 15 -14 98 -14 415 l0 397 23 21 c17 17 95 49 146 61
3 1 13 -6 23 -16z"/>
<path d="M12880 5995 c-18 -22 -26 -245 -25 -746 0 -356 1 -378 19 -398 18
-19 30 -21 148 -21 115 0 130 2 148 20 11 11 20 26 21 33 3 55 7 373 8 612 1
303 -5 422 -21 442 -5 7 -35 17 -66 23 -31 6 -73 17 -92 25 -65 24 -124 29
-140 10z m177 -191 c53 -10 53 -16 44 -464 -8 -413 -8 -413 -31 -432 -33 -27
-110 -25 -138 5 -21 22 -21 26 -18 445 3 388 5 424 21 442 18 20 43 20 122 4z"/>
<path d="M7486 5954 c-11 -30 -6 -977 5 -991 16 -18 274 -19 286 0 8 14 6 272
-7 606 l-8 223 -29 30 c-41 43 -198 148 -221 148 -11 0 -23 -7 -26 -16z m144
-244 l50 -49 0 -307 c0 -272 -2 -310 -17 -326 -23 -25 -81 -24 -110 4 l-23 21
0 335 c0 298 2 337 17 354 9 10 20 18 25 18 5 0 31 -22 58 -50z"/>
<path d="M10386 5891 c-3 -5 -7 -228 -8 -496 -2 -422 -1 -488 12 -495 8 -4 72
-11 141 -14 112 -7 127 -5 140 10 11 14 15 86 21 368 4 193 10 369 13 392 6
37 4 43 -26 70 -18 16 -44 40 -59 54 -15 14 -38 31 -53 37 -14 6 -46 28 -72
47 -45 35 -97 47 -109 27z m136 -220 c82 -52 79 -39 76 -381 l-3 -302 -24 -19
c-33 -27 -86 -25 -116 6 l-25 24 0 339 c0 398 -2 392 92 333z"/>
<path d="M9000 5847 c-36 -24 -89 -66 -119 -94 l-53 -49 1 -384 c0 -302 3
-385 13 -391 22 -14 254 -11 265 4 5 7 8 215 8 482 l-1 470 -24 3 c-16 2 -48
-13 -90 -41z m29 -171 c12 -14 17 -628 5 -659 -3 -10 -15 -22 -25 -28 -25 -13
-96 6 -108 30 -6 9 -12 140 -14 290 -5 308 -10 285 78 350 47 35 49 35 64 17z"/>
<path d="M11963 5797 c-127 -80 -192 -143 -205 -197 -14 -60 -16 -719 -3 -730
14 -10 289 -20 305 -10 24 15 29 104 29 548 l1 442 -22 -1 c-13 0 -60 -24
-105 -52z m-5 -210 c7 -8 11 -111 12 -282 2 -357 3 -342 -20 -365 -28 -28 -96
-27 -127 2 -23 21 -23 23 -23 275 0 158 4 262 10 274 11 19 119 109 131 109 4
0 11 -6 17 -13z"/>
<path d="M13397 5598 c-4 -116 -7 -331 -7 -478 0 -246 1 -268 18 -283 15 -14
40 -17 125 -17 l106 0 24 33 c23 31 24 39 37 352 7 176 14 323 17 327 2 4 -1
25 -7 47 -8 30 -27 54 -81 102 -81 71 -171 129 -204 129 -22 0 -22 -2 -28
-212z m140 -27 c75 -54 73 -47 72 -316 -1 -272 -7 -342 -34 -361 -28 -21 -82
-17 -105 6 -19 19 -20 33 -20 348 0 384 0 386 87 323z"/>
<path d="M8580 5428 c-35 -47 -64 -101 -82 -152 -27 -74 -28 -88 -26 -215 l3
-136 60 -1 c33 -1 78 -5 100 -9 66 -12 70 0 57 163 -7 76 -12 202 -12 280 0
141 0 142 -23 142 -16 0 -37 -20 -77 -72z"/>
<path d="M11509 5338 c-7 -13 -26 -41 -44 -63 -30 -37 -82 -152 -101 -220 -10
-39 -5 -167 8 -183 12 -14 164 -6 184 9 7 6 10 87 10 241 -1 232 -1 233 -23
236 -14 2 -26 -4 -34 -20z"/>
<path d="M7440 4129 c0 -22 10 -27 118 -57 74 -20 139 -32 179 -32 74 0 93 6
93 31 0 16 -8 19 -50 19 -27 0 -84 12 -127 26 -43 14 -108 28 -145 31 -67 6
-68 5 -68 -18z"/>
<path d="M9338 4233 c-19 -3 -28 -10 -28 -24 0 -15 7 -19 39 -19 21 0 74 -7
117 -14 131 -24 335 -38 589 -40 271 -1 365 11 365 47 0 18 -5 19 -82 13 -288
-22 -542 -15 -744 20 -92 16 -216 24 -256 17z"/>
<path d="M8790 4081 c0 -16 11 -19 73 -25 39 -4 101 -16 136 -28 57 -18 79
-20 180 -15 84 5 143 2 216 -9 114 -19 395 -15 548 7 74 11 87 16 87 32 0 18
-6 18 -92 13 -286 -18 -375 -18 -484 -1 -82 13 -137 16 -221 11 -97 -6 -120
-4 -174 14 -46 15 -89 20 -166 20 -94 0 -103 -2 -103 -19z"/>
<path d="M8834 3847 c-8 -4 -14 -17 -14 -27 0 -18 12 -19 213 -22 l212 -3 102
-42 c85 -35 120 -44 208 -53 95 -9 117 -7 236 15 73 14 133 25 135 25 2 0 4 9
4 20 0 24 -17 25 -160 10 -197 -21 -232 -18 -365 36 l-120 48 -218 1 c-120 0
-225 -4 -233 -8z"/>
<path d="M10100 3710 c-25 -5 -66 -9 -92 -9 -45 -1 -48 -3 -48 -28 l0 -26 133
7 c189 10 222 16 222 41 0 18 -7 20 -85 21 -47 1 -105 -2 -130 -6z"/>
<path d="M9050 3641 c0 -27 5 -31 63 -50 34 -11 97 -25 141 -31 43 -5 82 -12
86 -15 24 -15 208 -29 375 -29 356 1 415 5 415 34 0 15 -10 17 -67 16 -133 -2
-609 26 -668 39 -33 7 -84 16 -114 20 -30 4 -79 16 -110 26 -30 11 -69 19 -88
19 -30 0 -33 -3 -33 -29z"/>
<path d="M10715 3561 c-195 -40 -294 -52 -368 -46 l-79 7 4 -28 c4 -36 24 -41
171 -43 86 -1 126 4 195 23 193 54 221 56 302 25 73 -28 80 -34 73 -74 l-5
-33 143 5 c140 6 145 7 177 34 20 18 44 29 62 29 17 0 30 3 30 8 0 4 22 6 48
4 42 -3 48 -1 49 16 2 19 -6 20 -208 21 -204 1 -212 2 -272 28 -52 22 -79 27
-172 29 -60 1 -128 -1 -150 -5z"/>
<path d="M8402 3444 c-12 -3 -20 -10 -17 -15 3 -5 -1 -6 -9 -3 -26 10 -86 -15
-86 -37 0 -23 32 -25 70 -6 32 16 155 5 248 -22 155 -45 386 -75 464 -60 63
12 282 29 366 29 64 0 72 2 72 19 0 21 -23 23 -505 41 -186 7 -257 13 -316 29
-76 20 -243 34 -287 25z"/>
<path d="M9923 3363 c-20 -7 -16 -43 5 -43 9 -1 67 -7 127 -14 80 -10 124 -20
162 -39 76 -39 130 -48 308 -53 88 -2 233 -6 323 -8 99 -3 160 -1 157 4 -3 6
0 8 7 5 20 -8 113 31 116 49 4 19 -16 20 -88 5 -27 -6 -48 -14 -45 -19 7 -12
-198 -1 -289 16 -43 8 -135 14 -205 14 -124 0 -127 1 -197 35 -54 27 -93 38
-155 45 -88 10 -205 12 -226 3z"/>
<path d="M9568 3254 c-13 -12 -9 -54 5 -58 6 -2 53 -16 102 -31 118 -35 192
-52 290 -65 44 -7 112 -20 150 -30 142 -38 365 -38 365 0 0 19 -57 30 -161 30
-35 0 -95 12 -155 30 -55 17 -144 38 -199 45 -55 8 -143 29 -195 45 -100 32
-190 47 -202 34z"/>
<path d="M8508 3199 c-11 -6 -18 -22 -18 -39 l0 -30 118 0 c65 0 165 -6 223
-14 57 -8 222 -17 367 -21 256 -6 262 -6 262 13 0 27 -9 29 -172 42 -78 6
-188 15 -243 21 -392 42 -504 48 -537 28z"/>
<path d="M10250 2944 c-8 -1 -50 -6 -93 -9 -73 -6 -78 -8 -75 -28 3 -20 11
-23 108 -29 62 -5 152 -3 221 3 89 9 124 9 152 0 42 -14 57 -9 57 20 0 37 -55
49 -212 48 -79 -1 -150 -3 -158 -5z"/>
</g>
</svg>
